%TF.GenerationSoftware,KiCad,Pcbnew,7.0.9-7.0.9~ubuntu22.04.1*%
%TF.CreationDate,2024-02-22T15:11:35+02:00*%
%TF.ProjectId,USB-SERIAL-L_Rev_B,5553422d-5345-4524-9941-4c2d4c5f5265,B*%
%TF.SameCoordinates,PX5f5e100PY7270e00*%
%TF.FileFunction,Soldermask,Bot*%
%TF.FilePolarity,Negative*%
%FSLAX46Y46*%
G04 Gerber Fmt 4.6, Leading zero omitted, Abs format (unit mm)*
G04 Created by KiCad (PCBNEW 7.0.9-7.0.9~ubuntu22.04.1) date 2024-02-22 15:11:35*
%MOMM*%
%LPD*%
G01*
G04 APERTURE LIST*
%ADD10C,1.601600*%
%ADD11C,1.301600*%
%ADD12C,6.401600*%
%ADD13C,0.701600*%
%ADD14O,2.301600X1.301600*%
%ADD15O,2.101600X1.401600*%
G04 APERTURE END LIST*
D10*
X15574000Y8672000D03*
D11*
X1087000Y3500000D03*
X1849000Y5151000D03*
X1849000Y1722000D03*
X3500000Y5913000D03*
D12*
X3500000Y3500000D03*
D11*
X3500000Y1087000D03*
X5151000Y5151000D03*
X5151000Y1849000D03*
X5913000Y3500000D03*
X24087000Y28500000D03*
X24849000Y30151000D03*
X24849000Y26722000D03*
X26500000Y30913000D03*
D12*
X26500000Y28500000D03*
D11*
X26500000Y26087000D03*
X28151000Y30151000D03*
X28151000Y26849000D03*
X28913000Y28500000D03*
X24087000Y3500000D03*
X24849000Y5151000D03*
X24849000Y1722000D03*
X26500000Y5913000D03*
D12*
X26500000Y3500000D03*
D11*
X26500000Y1087000D03*
X28151000Y5151000D03*
X28151000Y1849000D03*
X28913000Y3500000D03*
X1087000Y28500000D03*
X1849000Y30151000D03*
X1849000Y26722000D03*
X3500000Y30913000D03*
D12*
X3500000Y28500000D03*
D11*
X3500000Y26087000D03*
X5151000Y30151000D03*
X5151000Y26849000D03*
X5913000Y28500000D03*
D13*
X7030000Y13110000D03*
X7030000Y18890000D03*
D14*
X7530000Y11680000D03*
X7530000Y20320000D03*
D15*
X3350000Y11680000D03*
X3350000Y20320000D03*
M02*
