%TF.GenerationSoftware,KiCad,Pcbnew,7.0.9-7.0.9~ubuntu22.04.1*%
%TF.CreationDate,2024-02-22T15:11:35+02:00*%
%TF.ProjectId,USB-SERIAL-L_Rev_B,5553422d-5345-4524-9941-4c2d4c5f5265,B*%
%TF.SameCoordinates,PX5f5e100PY7270e00*%
%TF.FileFunction,Soldermask,Top*%
%TF.FilePolarity,Negative*%
%FSLAX46Y46*%
G04 Gerber Fmt 4.6, Leading zero omitted, Abs format (unit mm)*
G04 Created by KiCad (PCBNEW 7.0.9-7.0.9~ubuntu22.04.1) date 2024-02-22 15:11:35*
%MOMM*%
%LPD*%
G01*
G04 APERTURE LIST*
G04 Aperture macros list*
%AMRoundRect*
0 Rectangle with rounded corners*
0 $1 Rounding radius*
0 $2 $3 $4 $5 $6 $7 $8 $9 X,Y pos of 4 corners*
0 Add a 4 corners polygon primitive as box body*
4,1,4,$2,$3,$4,$5,$6,$7,$8,$9,$2,$3,0*
0 Add four circle primitives for the rounded corners*
1,1,$1+$1,$2,$3*
1,1,$1+$1,$4,$5*
1,1,$1+$1,$6,$7*
1,1,$1+$1,$8,$9*
0 Add four rect primitives between the rounded corners*
20,1,$1+$1,$2,$3,$4,$5,0*
20,1,$1+$1,$4,$5,$6,$7,0*
20,1,$1+$1,$6,$7,$8,$9,0*
20,1,$1+$1,$8,$9,$2,$3,0*%
G04 Aperture macros list end*
%ADD10R,0.350000X0.381000*%
%ADD11R,0.381000X0.350000*%
%ADD12RoundRect,0.050800X-0.125000X-0.125000X0.125000X-0.125000X0.125000X0.125000X-0.125000X0.125000X0*%
%ADD13RoundRect,0.050800X-0.425000X-0.125000X0.425000X-0.125000X0.425000X0.125000X-0.425000X0.125000X0*%
%ADD14RoundRect,0.050800X0.125000X-0.425000X0.125000X0.425000X-0.125000X0.425000X-0.125000X-0.425000X0*%
%ADD15C,1.601600*%
%ADD16RoundRect,0.050800X-0.900000X-0.900000X0.900000X-0.900000X0.900000X0.900000X-0.900000X0.900000X0*%
%ADD17RoundRect,0.050800X-0.275000X0.250000X-0.275000X-0.250000X0.275000X-0.250000X0.275000X0.250000X0*%
%ADD18RoundRect,0.050800X0.275000X-0.250000X0.275000X0.250000X-0.275000X0.250000X-0.275000X-0.250000X0*%
%ADD19RoundRect,0.050800X1.100000X-0.300000X1.100000X0.300000X-1.100000X0.300000X-1.100000X-0.300000X0*%
%ADD20RoundRect,0.050800X0.500000X0.125000X-0.500000X0.125000X-0.500000X-0.125000X0.500000X-0.125000X0*%
%ADD21RoundRect,0.050800X-1.841500X0.825500X-1.841500X-0.825500X1.841500X-0.825500X1.841500X0.825500X0*%
%ADD22RoundRect,0.050800X0.250000X0.275000X-0.250000X0.275000X-0.250000X-0.275000X0.250000X-0.275000X0*%
%ADD23RoundRect,0.050800X-0.250000X-0.275000X0.250000X-0.275000X0.250000X0.275000X-0.250000X0.275000X0*%
%ADD24RoundRect,0.050800X-0.508000X0.508000X-0.508000X-0.508000X0.508000X-0.508000X0.508000X0.508000X0*%
%ADD25C,1.301600*%
%ADD26C,6.401600*%
%ADD27RoundRect,0.050800X0.500000X-0.125000X0.500000X0.125000X-0.500000X0.125000X-0.500000X-0.125000X0*%
%ADD28RoundRect,0.050800X0.400000X0.400000X-0.400000X0.400000X-0.400000X-0.400000X0.400000X-0.400000X0*%
%ADD29C,1.254000*%
%ADD30RoundRect,0.050800X-0.500000X0.125000X-0.500000X-0.125000X0.500000X-0.125000X0.500000X0.125000X0*%
%ADD31RoundRect,0.050800X0.508000X-0.508000X0.508000X0.508000X-0.508000X0.508000X-0.508000X-0.508000X0*%
%ADD32C,0.701600*%
%ADD33RoundRect,0.050800X-1.100000X0.550000X-1.100000X-0.550000X1.100000X-0.550000X1.100000X0.550000X0*%
%ADD34O,2.301600X1.301600*%
%ADD35RoundRect,0.050800X-1.000000X0.550000X-1.000000X-0.550000X1.000000X-0.550000X1.000000X0.550000X0*%
%ADD36O,2.101600X1.401600*%
%ADD37RoundRect,0.050800X-0.575000X0.150000X-0.575000X-0.150000X0.575000X-0.150000X0.575000X0.150000X0*%
%ADD38RoundRect,0.050800X-0.575000X0.125000X-0.575000X-0.125000X0.575000X-0.125000X0.575000X0.125000X0*%
%ADD39RoundRect,0.050800X0.700000X0.500000X-0.700000X0.500000X-0.700000X-0.500000X0.700000X-0.500000X0*%
%ADD40RoundRect,0.050800X-0.762000X-0.635000X0.762000X-0.635000X0.762000X0.635000X-0.762000X0.635000X0*%
G04 APERTURE END LIST*
D10*
X16824000Y10532000D03*
X14324000Y10532000D03*
D11*
X17434000Y9922000D03*
X13714000Y9922000D03*
X17434000Y7422000D03*
X13714000Y7422000D03*
D10*
X16824000Y6812000D03*
X14324000Y6812000D03*
D12*
X14324000Y9922000D03*
D13*
X13999000Y9422000D03*
X13999000Y8922000D03*
X13999000Y8422000D03*
X13999000Y7922000D03*
D12*
X14324000Y7422000D03*
D14*
X14824000Y7097000D03*
X15324000Y7097000D03*
X15824000Y7097000D03*
X16324000Y7097000D03*
D12*
X16824000Y7422000D03*
D13*
X17149000Y7922000D03*
X17149000Y8422000D03*
X17149000Y8922000D03*
X17149000Y9422000D03*
D12*
X16824000Y9922000D03*
D14*
X16324000Y10247000D03*
X15824000Y10247000D03*
X15324000Y10247000D03*
X14824000Y10247000D03*
D15*
X15574000Y8672000D03*
D16*
X15574000Y8672000D03*
D17*
X9347000Y7986000D03*
D18*
X9347000Y9002000D03*
D19*
X13625000Y25131000D03*
X13625000Y26401000D03*
X13625000Y27671000D03*
X13625000Y28941000D03*
X8625000Y28941000D03*
X8625000Y27671000D03*
X8625000Y26401000D03*
X8625000Y25131000D03*
D20*
X12824000Y15360000D03*
X12824000Y15860000D03*
X12824000Y16360000D03*
X11204000Y16360000D03*
X11204000Y15860000D03*
X11204000Y15360000D03*
D21*
X24000000Y8380000D03*
X24000000Y10920000D03*
X24000000Y13460000D03*
X24000000Y16000000D03*
X24000000Y18540000D03*
X24000000Y21080000D03*
X24000000Y23620000D03*
D22*
X19253000Y20940000D03*
D23*
X20269000Y20940000D03*
D24*
X18872000Y28433000D03*
X18872000Y26655000D03*
D25*
X1087000Y3500000D03*
X1849000Y5151000D03*
X1849000Y1722000D03*
X3500000Y5913000D03*
D26*
X3500000Y3500000D03*
D25*
X3500000Y1087000D03*
X5151000Y5151000D03*
X5151000Y1849000D03*
X5913000Y3500000D03*
D23*
X19761000Y29830000D03*
D22*
X18745000Y29830000D03*
D17*
X6553000Y7986000D03*
D18*
X6553000Y9002000D03*
D27*
X20015000Y13840000D03*
X20015000Y14340000D03*
X20015000Y14840000D03*
X20015000Y15340000D03*
X17015000Y15340000D03*
X17015000Y14840000D03*
X17015000Y14340000D03*
X17015000Y13840000D03*
D28*
X9238000Y2250000D03*
X10762000Y2250000D03*
D29*
X21920000Y4430000D03*
D30*
X20015000Y19150000D03*
X20015000Y18650000D03*
X20015000Y18150000D03*
X20015000Y17650000D03*
X17015000Y17650000D03*
X17015000Y18150000D03*
X17015000Y18650000D03*
X17015000Y19150000D03*
D25*
X24087000Y28500000D03*
X24849000Y30151000D03*
X24849000Y26722000D03*
X26500000Y30913000D03*
D26*
X26500000Y28500000D03*
D25*
X26500000Y26087000D03*
X28151000Y30151000D03*
X28151000Y26849000D03*
X28913000Y28500000D03*
D18*
X18364000Y5065000D03*
D17*
X18364000Y4049000D03*
D23*
X15824000Y12685000D03*
D22*
X14808000Y12685000D03*
D31*
X20777000Y26528000D03*
X20777000Y28306000D03*
D23*
X12268000Y9891000D03*
D22*
X11252000Y9891000D03*
X8966000Y4049000D03*
D23*
X9982000Y4049000D03*
D31*
X22301000Y26528000D03*
X22301000Y28306000D03*
D25*
X24087000Y3500000D03*
X24849000Y5151000D03*
X24849000Y1722000D03*
X26500000Y5913000D03*
D26*
X26500000Y3500000D03*
D25*
X26500000Y1087000D03*
X28151000Y5151000D03*
X28151000Y1849000D03*
X28913000Y3500000D03*
D18*
X20015000Y12304000D03*
D17*
X20015000Y11288000D03*
D24*
X16713000Y28433000D03*
X16713000Y26655000D03*
D17*
X15443000Y19289000D03*
D18*
X15443000Y20305000D03*
D23*
X15697000Y4049000D03*
D22*
X14681000Y4049000D03*
X10998000Y23226000D03*
D23*
X12014000Y23226000D03*
D25*
X1087000Y28500000D03*
X1849000Y30151000D03*
X1849000Y26722000D03*
X3500000Y30913000D03*
D26*
X3500000Y28500000D03*
D25*
X3500000Y26087000D03*
X5151000Y30151000D03*
X5151000Y26849000D03*
X5913000Y28500000D03*
D22*
X13411000Y23226000D03*
D23*
X14427000Y23226000D03*
D18*
X19507000Y5065000D03*
D17*
X19507000Y4049000D03*
D23*
X12776000Y5065000D03*
D22*
X11760000Y5065000D03*
D29*
X22174000Y30338000D03*
D32*
X7030000Y13110000D03*
X7030000Y18890000D03*
D33*
X7530000Y11072400D03*
D34*
X7530000Y11680000D03*
X7530000Y20320000D03*
D33*
X7530000Y20927600D03*
D35*
X3350000Y11072400D03*
D36*
X3350000Y11680000D03*
X3350000Y20320000D03*
D35*
X3350000Y20927600D03*
D37*
X8432000Y19325000D03*
X8432000Y18525000D03*
D38*
X8432000Y17250000D03*
X8432000Y16250000D03*
X8432000Y15750000D03*
X8432000Y14750000D03*
D37*
X8432000Y13475000D03*
X8432000Y12675000D03*
X8432000Y12925000D03*
X8432000Y13725000D03*
D38*
X8432000Y14250000D03*
X8432000Y15250000D03*
X8432000Y16750000D03*
X8432000Y17750000D03*
D37*
X8432000Y18275000D03*
X8432000Y19075000D03*
D29*
X1600000Y24242000D03*
D17*
X5156000Y7986000D03*
D18*
X5156000Y9002000D03*
D28*
X14238000Y2250000D03*
X15762000Y2250000D03*
D22*
X14681000Y5065000D03*
D23*
X15697000Y5065000D03*
D18*
X17221000Y5065000D03*
D17*
X17221000Y4049000D03*
D23*
X12776000Y6208000D03*
D22*
X11760000Y6208000D03*
D28*
X19238000Y2250000D03*
X20762000Y2250000D03*
D23*
X12268000Y11034000D03*
D22*
X11252000Y11034000D03*
D39*
X17383560Y24556960D03*
X17383560Y22654500D03*
X19593360Y23609540D03*
D17*
X7950000Y7986000D03*
D18*
X7950000Y9002000D03*
D40*
X11379000Y18781000D03*
X13411000Y18781000D03*
D23*
X17475000Y29830000D03*
D22*
X16459000Y29830000D03*
D29*
X1600000Y7859000D03*
M02*
