%TF.GenerationSoftware,KiCad,Pcbnew,7.0.9-7.0.9~ubuntu22.04.1*%
%TF.CreationDate,2024-02-22T15:11:35+02:00*%
%TF.ProjectId,USB-SERIAL-L_Rev_B,5553422d-5345-4524-9941-4c2d4c5f5265,B*%
%TF.SameCoordinates,PX5f5e100PY7270e00*%
%TF.FileFunction,Copper,L2,Bot*%
%TF.FilePolarity,Positive*%
%FSLAX46Y46*%
G04 Gerber Fmt 4.6, Leading zero omitted, Abs format (unit mm)*
G04 Created by KiCad (PCBNEW 7.0.9-7.0.9~ubuntu22.04.1) date 2024-02-22 15:11:35*
%MOMM*%
%LPD*%
G01*
G04 APERTURE LIST*
%TA.AperFunction,ComponentPad*%
%ADD10C,1.500000*%
%TD*%
%TA.AperFunction,ComponentPad*%
%ADD11C,1.200000*%
%TD*%
%TA.AperFunction,ComponentPad*%
%ADD12C,6.300000*%
%TD*%
%TA.AperFunction,ComponentPad*%
%ADD13O,2.200000X1.200000*%
%TD*%
%TA.AperFunction,ComponentPad*%
%ADD14O,2.000000X1.300000*%
%TD*%
%TA.AperFunction,ViaPad*%
%ADD15C,1.000000*%
%TD*%
%TA.AperFunction,ViaPad*%
%ADD16C,0.800000*%
%TD*%
%TA.AperFunction,Conductor*%
%ADD17C,0.254000*%
%TD*%
%TA.AperFunction,Conductor*%
%ADD18C,1.016000*%
%TD*%
%TA.AperFunction,Conductor*%
%ADD19C,0.762000*%
%TD*%
%TA.AperFunction,Conductor*%
%ADD20C,1.524000*%
%TD*%
%TA.AperFunction,Conductor*%
%ADD21C,0.508000*%
%TD*%
%TA.AperFunction,Conductor*%
%ADD22C,0.304800*%
%TD*%
G04 APERTURE END LIST*
D10*
X15574000Y8672000D03*
D11*
X1087000Y3500000D03*
X1849000Y5151000D03*
X1849000Y1722000D03*
X3500000Y5913000D03*
D12*
X3500000Y3500000D03*
D11*
X3500000Y1087000D03*
X5151000Y5151000D03*
X5151000Y1849000D03*
X5913000Y3500000D03*
X24087000Y28500000D03*
X24849000Y30151000D03*
X24849000Y26722000D03*
X26500000Y30913000D03*
D12*
X26500000Y28500000D03*
D11*
X26500000Y26087000D03*
X28151000Y30151000D03*
X28151000Y26849000D03*
X28913000Y28500000D03*
X24087000Y3500000D03*
X24849000Y5151000D03*
X24849000Y1722000D03*
X26500000Y5913000D03*
D12*
X26500000Y3500000D03*
D11*
X26500000Y1087000D03*
X28151000Y5151000D03*
X28151000Y1849000D03*
X28913000Y3500000D03*
X1087000Y28500000D03*
X1849000Y30151000D03*
X1849000Y26722000D03*
X3500000Y30913000D03*
D12*
X3500000Y28500000D03*
D11*
X3500000Y26087000D03*
X5151000Y30151000D03*
X5151000Y26849000D03*
X5913000Y28500000D03*
D13*
X7530000Y11680000D03*
X7530000Y20320000D03*
D14*
X3350000Y11680000D03*
X3350000Y20320000D03*
D15*
X19761000Y16495000D03*
D16*
X16205000Y4557000D03*
D15*
X26873000Y19924000D03*
D16*
X13919000Y30465000D03*
X10617000Y10526000D03*
X9855000Y30465000D03*
D15*
X28397000Y7224000D03*
X12268000Y13320000D03*
D16*
X14046000Y15860000D03*
D15*
X22174000Y2144000D03*
X6553000Y15225000D03*
X20142000Y30973000D03*
X18237000Y20051000D03*
D16*
X17411500Y3096500D03*
D15*
X21539000Y7351000D03*
X26873000Y14717000D03*
X1219000Y10018000D03*
X10871000Y5954000D03*
X12014000Y22210000D03*
X28905000Y12177000D03*
X16583900Y16619900D03*
X27254000Y9637000D03*
X21158000Y10780000D03*
X8966000Y23861000D03*
X1219000Y20813000D03*
X28905000Y22337000D03*
X1219000Y17257000D03*
X18745000Y7351000D03*
X15697000Y24750000D03*
X11760000Y28941000D03*
X5156000Y23861000D03*
X3886000Y15352000D03*
X1219000Y13701000D03*
X4140000Y7986000D03*
X28905000Y17384000D03*
D16*
X15316000Y13828000D03*
D15*
X20269000Y22083000D03*
X21158000Y12177000D03*
X26746000Y17130000D03*
X17729000Y28433000D03*
D16*
X17983000Y26655000D03*
D15*
X18745000Y8748000D03*
D16*
X15570000Y11923000D03*
X21285000Y9383000D03*
D15*
X15443000Y18527000D03*
X13538000Y5065000D03*
X21539000Y24877000D03*
X15824000Y21702000D03*
X21539000Y23607000D03*
X16967000Y21702000D03*
X11125000Y3668000D03*
X10744000Y20686000D03*
D16*
X10125150Y16003150D03*
D15*
X9982000Y13320000D03*
X9982000Y18527000D03*
D16*
X10998000Y14209000D03*
X15197354Y16232646D03*
X11105643Y8699000D03*
X10490000Y17130000D03*
X11105643Y7645000D03*
X15697000Y15225000D03*
X18364000Y18781000D03*
X17602000Y11161000D03*
D17*
X18364000Y18781000D02*
X18872000Y18273000D01*
X18872000Y18273000D02*
X18872000Y12558000D01*
X18872000Y12558000D02*
X17602000Y11288000D01*
X17602000Y11288000D02*
X17602000Y11161000D01*
D18*
X18237000Y20051000D02*
X19126000Y20051000D01*
X19126000Y20051000D02*
X19761000Y19416000D01*
X19761000Y9764000D02*
X20091200Y9433800D01*
X19761000Y19416000D02*
X19761000Y9764000D01*
X20091200Y9433800D02*
X20091200Y8036800D01*
X20091200Y8036800D02*
X20777000Y7351000D01*
X20777000Y7351000D02*
X21539000Y7351000D01*
D19*
X18618000Y8748000D02*
X18554500Y8748000D01*
X18554500Y8748000D02*
X15951000Y11351500D01*
X15951000Y11351500D02*
X15951000Y11415000D01*
D20*
X15574000Y8672000D02*
X16662000Y8672000D01*
D18*
X18237000Y20051000D02*
X13284000Y20051000D01*
X13284000Y15860000D02*
X13284000Y18273000D01*
X21539000Y7351000D02*
X18745000Y7351000D01*
X3350000Y11680000D02*
X3350000Y20320000D01*
X20904000Y5065000D02*
X20904000Y2779000D01*
D21*
X16583900Y16619900D02*
X16840000Y16363800D01*
D18*
X7442000Y5319000D02*
X3350000Y9411000D01*
X7530000Y11680000D02*
X7530000Y9803000D01*
X20904000Y2779000D02*
X19380000Y1255000D01*
X12014000Y21321000D02*
X12014000Y22210000D01*
X9855000Y10907000D02*
X12268000Y13320000D01*
X12014000Y22210000D02*
X12014000Y28687000D01*
X3350000Y20320000D02*
X3350000Y22309000D01*
X17411500Y3096500D02*
X16713000Y3795000D01*
D20*
X16662000Y8672000D02*
X17856000Y7478000D01*
D21*
X16840000Y14971000D02*
X15697000Y13828000D01*
D18*
X19380000Y1255000D02*
X9474000Y1255000D01*
X12268000Y14844000D02*
X12268000Y13320000D01*
D20*
X15574000Y7093000D02*
X15574000Y8672000D01*
D18*
X16713000Y3795000D02*
X13030000Y3795000D01*
D21*
X15692800Y17511000D02*
X14935000Y17511000D01*
D18*
X3350000Y9411000D02*
X3350000Y11680000D01*
X12268000Y14844000D02*
X13284000Y15860000D01*
X12014000Y28687000D02*
X11760000Y28941000D01*
X16840000Y5827000D02*
X15574000Y7093000D01*
X13284000Y20051000D02*
X12014000Y21321000D01*
X9474000Y1255000D02*
X7442000Y3287000D01*
X9982000Y28941000D02*
X11760000Y28941000D01*
X9855000Y6970000D02*
X9855000Y10907000D01*
X7530000Y20320000D02*
X9332000Y20320000D01*
D21*
X15697000Y13828000D02*
X15316000Y13828000D01*
D18*
X21539000Y5700000D02*
X20904000Y5065000D01*
D21*
X14173000Y18273000D02*
X13284000Y18273000D01*
D19*
X14046000Y15860000D02*
X13284000Y15860000D01*
D21*
X16840000Y16363800D02*
X16840000Y14971000D01*
X16583900Y16619900D02*
X15692800Y17511000D01*
D18*
X9332000Y20320000D02*
X9728000Y19924000D01*
D21*
X14935000Y17511000D02*
X14173000Y18273000D01*
D18*
X7442000Y3287000D02*
X7442000Y5319000D01*
X13030000Y3795000D02*
X9855000Y6970000D01*
X3350000Y22309000D02*
X9982000Y28941000D01*
X21539000Y7351000D02*
X21539000Y5700000D01*
X13284000Y18273000D02*
X13284000Y20051000D01*
X21158000Y21194000D02*
X20269000Y22083000D01*
X21158000Y12177000D02*
X21158000Y21194000D01*
D21*
X23698000Y25893000D02*
X21158000Y28433000D01*
X23698000Y20178000D02*
X23698000Y25893000D01*
X26746000Y17130000D02*
X23698000Y20178000D01*
X21158000Y28433000D02*
X17729000Y28433000D01*
D18*
X16649500Y18527000D02*
X17856000Y17320500D01*
D22*
X22301000Y10399000D02*
X22301000Y22400500D01*
D18*
X17856000Y17320500D02*
X17856000Y13320000D01*
D22*
X22809000Y25512000D02*
X21666000Y26655000D01*
D18*
X15443000Y18527000D02*
X16649500Y18527000D01*
X15951000Y11415000D02*
X15951000Y11542000D01*
X15951000Y11542000D02*
X15570000Y11923000D01*
X13919000Y9383000D02*
X13919000Y5446000D01*
D22*
X21285000Y9383000D02*
X22301000Y10399000D01*
D18*
X13919000Y5446000D02*
X13538000Y5065000D01*
X17856000Y13320000D02*
X13919000Y9383000D01*
D22*
X22809000Y22908500D02*
X22809000Y25512000D01*
X22301000Y22400500D02*
X22809000Y22908500D01*
X21666000Y26655000D02*
X17983000Y26655000D01*
D21*
X18745000Y8748000D02*
X18618000Y8748000D01*
D20*
X21539000Y24877000D02*
X20269000Y23607000D01*
D18*
X9601000Y21829000D02*
X10744000Y20686000D01*
D20*
X21539000Y23607000D02*
X21539000Y24877000D01*
D18*
X5283000Y9510000D02*
X5283000Y20813000D01*
D20*
X18872000Y23607000D02*
X16967000Y21702000D01*
X21539000Y23607000D02*
X20269000Y23607000D01*
D18*
X6299000Y21829000D02*
X9601000Y21829000D01*
X11125000Y3668000D02*
X5283000Y9510000D01*
D20*
X16967000Y21702000D02*
X15824000Y21702000D01*
D18*
X5283000Y20813000D02*
X6299000Y21829000D01*
D20*
X20269000Y23607000D02*
X18872000Y23607000D01*
D18*
X9220000Y14082000D02*
X9220000Y15987000D01*
D19*
X10125150Y16003150D02*
X9236150Y16003150D01*
D18*
X9220000Y15987000D02*
X9220000Y17765000D01*
D19*
X9236150Y16003150D02*
X9220000Y15987000D01*
D18*
X9982000Y13320000D02*
X9220000Y14082000D01*
X9220000Y17765000D02*
X9982000Y18527000D01*
D17*
X11105643Y8699000D02*
X11441222Y8699000D01*
X12014000Y11139212D02*
X13538000Y12663212D01*
X12014000Y9271778D02*
X12014000Y11139212D01*
X10998000Y14209000D02*
X10998000Y16622000D01*
X13538000Y12663212D02*
X13538000Y14187211D01*
X10998000Y16622000D02*
X10490000Y17130000D01*
X13538000Y14187211D02*
X15197354Y15846565D01*
X15197354Y15846565D02*
X15197354Y16232646D01*
X11441222Y8699000D02*
X12014000Y9271778D01*
X12014000Y8553357D02*
X12522000Y9061357D01*
X12014000Y7859000D02*
X12014000Y8553357D01*
X11800000Y7645000D02*
X12014000Y7859000D01*
X15294211Y15225000D02*
X15697000Y15225000D01*
X12522000Y10928788D02*
X14046000Y12452788D01*
X11105643Y7645000D02*
X11800000Y7645000D01*
X14046000Y13976789D02*
X15294211Y15225000D01*
X14046000Y12452788D02*
X14046000Y13976789D01*
X12522000Y9061357D02*
X12522000Y10928788D01*
%TA.AperFunction,Conductor*%
G36*
X29687621Y31725498D02*
G01*
X29734114Y31671842D01*
X29745500Y31619500D01*
X29745500Y380500D01*
X29725498Y312379D01*
X29671842Y265886D01*
X29619500Y254500D01*
X380500Y254500D01*
X312379Y274502D01*
X265886Y328158D01*
X254500Y380500D01*
X254500Y11426000D01*
X1869423Y11426000D01*
X1881435Y11361737D01*
X1881436Y11361734D01*
X1958958Y11161629D01*
X1958966Y11161613D01*
X2071935Y10979161D01*
X2071936Y10979160D01*
X2216516Y10820563D01*
X2387779Y10691232D01*
X2387784Y10691228D01*
X2579884Y10595574D01*
X2579890Y10595571D01*
X2786309Y10536841D01*
X2946459Y10522000D01*
X3096000Y10522000D01*
X3096000Y11280000D01*
X3604000Y11280000D01*
X3604000Y10522000D01*
X3753541Y10522000D01*
X3913688Y10536841D01*
X3913692Y10536841D01*
X4120109Y10595571D01*
X4120115Y10595574D01*
X4312215Y10691228D01*
X4312216Y10691229D01*
X4318565Y10696023D01*
X4384980Y10721115D01*
X4454417Y10706317D01*
X4504831Y10656327D01*
X4520500Y10595475D01*
X4520500Y9574729D01*
X4519170Y9556470D01*
X4515634Y9532332D01*
X4515634Y9532327D01*
X4520260Y9479445D01*
X4520500Y9473952D01*
X4520500Y9465584D01*
X4524368Y9432489D01*
X4531168Y9354763D01*
X4532652Y9347577D01*
X4532593Y9347565D01*
X4534251Y9340084D01*
X4534310Y9340097D01*
X4536001Y9332960D01*
X4562690Y9259631D01*
X4587234Y9185562D01*
X4590335Y9178912D01*
X4590280Y9178887D01*
X4593619Y9171990D01*
X4593673Y9172017D01*
X4596962Y9165468D01*
X4596965Y9165464D01*
X4596966Y9165461D01*
X4639848Y9100262D01*
X4680812Y9033851D01*
X4680813Y9033850D01*
X4680815Y9033847D01*
X4685362Y9028097D01*
X4685314Y9028060D01*
X4690154Y9022119D01*
X4690200Y9022157D01*
X4694911Y9016543D01*
X4694912Y9016542D01*
X4694915Y9016538D01*
X4751685Y8962978D01*
X10617230Y3097431D01*
X10617234Y3097428D01*
X10617235Y3097427D01*
X10721981Y3014605D01*
X10883527Y2939275D01*
X11058092Y2903231D01*
X11236264Y2908414D01*
X11408436Y2954548D01*
X11565330Y3039144D01*
X11698484Y3157642D01*
X11800723Y3303653D01*
X11866533Y3469306D01*
X11892367Y3645672D01*
X11876831Y3823240D01*
X11820765Y3992440D01*
X11727189Y4144149D01*
X11727188Y4144150D01*
X11727183Y4144156D01*
X10739430Y5131909D01*
X12773231Y5131909D01*
X12778415Y4953737D01*
X12824548Y4781564D01*
X12909144Y4624670D01*
X13027642Y4491516D01*
X13173653Y4389277D01*
X13339307Y4323468D01*
X13515672Y4297634D01*
X13693240Y4313169D01*
X13862440Y4369235D01*
X13951935Y4424438D01*
X14014145Y4462809D01*
X14014146Y4462811D01*
X14014149Y4462812D01*
X14412407Y4861071D01*
X14426240Y4873025D01*
X14445822Y4887602D01*
X14479952Y4928279D01*
X14483651Y4932315D01*
X14489573Y4938235D01*
X14510245Y4964380D01*
X14560396Y5024147D01*
X14560398Y5024152D01*
X14564430Y5030280D01*
X14564483Y5030245D01*
X14568595Y5036700D01*
X14568541Y5036733D01*
X14572390Y5042975D01*
X14572395Y5042980D01*
X14605377Y5113712D01*
X14640394Y5183434D01*
X14640394Y5183436D01*
X14640396Y5183439D01*
X14642908Y5190339D01*
X14642966Y5190318D01*
X14645475Y5197538D01*
X14645416Y5197557D01*
X14647722Y5204522D01*
X14647725Y5204526D01*
X14663502Y5280939D01*
X14681500Y5356877D01*
X14681500Y5356884D01*
X14682352Y5364166D01*
X14682412Y5364159D01*
X14683190Y5371774D01*
X14683129Y5371779D01*
X14683767Y5379083D01*
X14683769Y5379091D01*
X14681500Y5457076D01*
X14681500Y7519158D01*
X14701502Y7587279D01*
X14755158Y7633772D01*
X14825432Y7643876D01*
X14879771Y7622371D01*
X14942600Y7578378D01*
X15142092Y7485353D01*
X15142096Y7485351D01*
X15354712Y7428381D01*
X15574000Y7409196D01*
X15793287Y7428381D01*
X16005903Y7485351D01*
X16005912Y7485355D01*
X16205405Y7578381D01*
X16205412Y7578385D01*
X16265986Y7620802D01*
X16265986Y7620804D01*
X15701587Y8185203D01*
X15716315Y8187320D01*
X15847100Y8247048D01*
X15955761Y8341202D01*
X16033493Y8462156D01*
X16058361Y8546850D01*
X16625197Y7980014D01*
X16625198Y7980014D01*
X16667615Y8040588D01*
X16667619Y8040595D01*
X16760645Y8240088D01*
X16760649Y8240097D01*
X16817619Y8452713D01*
X16836804Y8672000D01*
X16817619Y8891288D01*
X16760649Y9103904D01*
X16760647Y9103908D01*
X16667621Y9303402D01*
X16625198Y9363988D01*
X16625196Y9363988D01*
X16058360Y8797152D01*
X16033493Y8881844D01*
X15955761Y9002798D01*
X15847100Y9096952D01*
X15716315Y9156680D01*
X15701587Y9158798D01*
X16265986Y9723199D01*
X16265986Y9723200D01*
X16205401Y9765622D01*
X16205402Y9765622D01*
X16005907Y9858648D01*
X16005902Y9858650D01*
X15796406Y9914784D01*
X15735783Y9951736D01*
X15704762Y10015596D01*
X15713190Y10086091D01*
X15739922Y10125586D01*
X15919957Y10305621D01*
X15982269Y10339647D01*
X16053084Y10334582D01*
X16098146Y10305622D01*
X17084262Y9319505D01*
X18045685Y8358082D01*
X18055672Y8345618D01*
X18055896Y8345803D01*
X18060947Y8339697D01*
X18112193Y8291574D01*
X18133401Y8270365D01*
X18138972Y8266044D01*
X18143486Y8262188D01*
X18149978Y8256092D01*
X18177994Y8229783D01*
X18177996Y8229782D01*
X18195824Y8219981D01*
X18212352Y8209124D01*
X18229283Y8195991D01*
X18235215Y8190761D01*
X18253976Y8172000D01*
X18271601Y8154375D01*
X18302260Y8135111D01*
X18415563Y8063918D01*
X18576046Y8007763D01*
X18745000Y7988726D01*
X18913954Y8007763D01*
X19074437Y8063918D01*
X19218400Y8154376D01*
X19338624Y8274600D01*
X19429082Y8418563D01*
X19485237Y8579046D01*
X19504274Y8748000D01*
X19485237Y8916954D01*
X19429082Y9077437D01*
X19338624Y9221400D01*
X19338622Y9221403D01*
X19218402Y9341623D01*
X19218399Y9341625D01*
X19074439Y9432081D01*
X19074437Y9432082D01*
X19063786Y9435809D01*
X18913954Y9488237D01*
X18745000Y9507274D01*
X18744998Y9507274D01*
X18737969Y9508066D01*
X18738144Y9509625D01*
X18678027Y9527276D01*
X18657057Y9544175D01*
X17839420Y10361812D01*
X17805397Y10424122D01*
X17810462Y10494938D01*
X17853009Y10551773D01*
X17869948Y10562464D01*
X17976529Y10618401D01*
X18095498Y10723799D01*
X18185787Y10854605D01*
X18242149Y11003218D01*
X18242149Y11003219D01*
X18242150Y11003221D01*
X18261307Y11160997D01*
X18261307Y11161003D01*
X18241981Y11320164D01*
X18253626Y11390199D01*
X18277964Y11424444D01*
X19104542Y12251022D01*
X19124718Y12267406D01*
X19133956Y12273440D01*
X19156114Y12301911D01*
X19161282Y12307762D01*
X19164113Y12310591D01*
X19177891Y12329890D01*
X19212158Y12373915D01*
X19212158Y12373918D01*
X19215957Y12380936D01*
X19219471Y12388126D01*
X19219475Y12388130D01*
X19225655Y12408889D01*
X19235391Y12441590D01*
X19253499Y12494336D01*
X19254819Y12502251D01*
X19255805Y12510157D01*
X19253500Y12565884D01*
X19253500Y18220367D01*
X19256182Y18246227D01*
X19256265Y18246621D01*
X19258445Y18257017D01*
X19253983Y18292808D01*
X19253500Y18300600D01*
X19253500Y18304613D01*
X19249594Y18328017D01*
X19246861Y18349938D01*
X19242695Y18383361D01*
X19242694Y18383364D01*
X19240408Y18391041D01*
X19237819Y18398584D01*
X19211269Y18447646D01*
X19186777Y18497744D01*
X19182129Y18504254D01*
X19177216Y18510567D01*
X19136181Y18548341D01*
X19053718Y18630805D01*
X19019692Y18693117D01*
X19017732Y18735089D01*
X19020530Y18758126D01*
X19023307Y18781000D01*
X19017111Y18832033D01*
X19004150Y18938780D01*
X18986456Y18985433D01*
X18947787Y19087395D01*
X18857498Y19218201D01*
X18738529Y19323599D01*
X18738528Y19323600D01*
X18738525Y19323602D01*
X18597797Y19397461D01*
X18597795Y19397462D01*
X18597793Y19397463D01*
X18597791Y19397464D01*
X18597790Y19397464D01*
X18443472Y19435500D01*
X18443471Y19435500D01*
X18284529Y19435500D01*
X18284527Y19435500D01*
X18130209Y19397464D01*
X18130202Y19397461D01*
X17989474Y19323602D01*
X17989469Y19323598D01*
X17870501Y19218200D01*
X17780215Y19087399D01*
X17780212Y19087393D01*
X17723849Y18938780D01*
X17710888Y18832033D01*
X17682821Y18766820D01*
X17623952Y18727134D01*
X17552972Y18725574D01*
X17496712Y18758126D01*
X17234442Y19020396D01*
X17222470Y19034248D01*
X17207898Y19053822D01*
X17207896Y19053824D01*
X17167230Y19087948D01*
X17163176Y19091662D01*
X17157271Y19097568D01*
X17131119Y19118247D01*
X17071355Y19168395D01*
X17065228Y19172424D01*
X17065261Y19172476D01*
X17058803Y19176590D01*
X17058772Y19176539D01*
X17052522Y19180394D01*
X17020637Y19195262D01*
X16981794Y19213375D01*
X16972185Y19218201D01*
X16912072Y19248392D01*
X16905171Y19250903D01*
X16905191Y19250961D01*
X16897959Y19253475D01*
X16897940Y19253417D01*
X16890976Y19255725D01*
X16814565Y19271502D01*
X16738620Y19289501D01*
X16731333Y19290352D01*
X16731340Y19290413D01*
X16723726Y19291191D01*
X16723721Y19291129D01*
X16716409Y19291769D01*
X16638424Y19289500D01*
X15398585Y19289500D01*
X15265958Y19273999D01*
X15265956Y19273998D01*
X15098463Y19213036D01*
X15098457Y19213033D01*
X14949542Y19115090D01*
X14827216Y18985433D01*
X14738094Y18831069D01*
X14716257Y18758126D01*
X14696795Y18693117D01*
X14686972Y18660307D01*
X14677837Y18503458D01*
X14676608Y18482363D01*
X14704638Y18323398D01*
X14707561Y18306820D01*
X14707561Y18306819D01*
X14778156Y18143161D01*
X14778157Y18143160D01*
X14778159Y18143158D01*
X14778160Y18143155D01*
X14884602Y18000178D01*
X14884604Y18000177D01*
X14884605Y18000175D01*
X14894074Y17992230D01*
X15021147Y17885604D01*
X15023854Y17884245D01*
X15180427Y17805609D01*
X15180430Y17805608D01*
X15180434Y17805606D01*
X15353877Y17764500D01*
X16281473Y17764500D01*
X16349594Y17744498D01*
X16370568Y17727595D01*
X17056595Y17041568D01*
X17090621Y16979256D01*
X17093500Y16952473D01*
X17093500Y13688029D01*
X17073498Y13619908D01*
X17056595Y13598934D01*
X16077030Y12619370D01*
X16014718Y12585344D01*
X15943902Y12590409D01*
X15934692Y12594268D01*
X15811473Y12651725D01*
X15811471Y12651726D01*
X15636911Y12687769D01*
X15636909Y12687769D01*
X15518127Y12684313D01*
X15458736Y12682585D01*
X15286563Y12636452D01*
X15129672Y12551858D01*
X15129671Y12551857D01*
X14996516Y12433359D01*
X14996514Y12433356D01*
X14894278Y12287348D01*
X14894275Y12287344D01*
X14828468Y12121693D01*
X14802634Y11945328D01*
X14818169Y11767760D01*
X14874235Y11598560D01*
X14874236Y11598558D01*
X14891360Y11570796D01*
X14910097Y11502317D01*
X14888838Y11434578D01*
X14873214Y11415554D01*
X13425602Y9967942D01*
X13411753Y9955972D01*
X13392179Y9941399D01*
X13392176Y9941397D01*
X13358056Y9900735D01*
X13354349Y9896689D01*
X13348428Y9890767D01*
X13348428Y9890766D01*
X13327754Y9864621D01*
X13277604Y9804853D01*
X13273574Y9798725D01*
X13273523Y9798758D01*
X13269405Y9792294D01*
X13269455Y9792263D01*
X13265607Y9786026D01*
X13232625Y9715295D01*
X13197604Y9645562D01*
X13195095Y9638668D01*
X13195039Y9638689D01*
X13192525Y9631455D01*
X13192582Y9631436D01*
X13190275Y9624476D01*
X13174498Y9548066D01*
X13156499Y9472122D01*
X13155648Y9464833D01*
X13155587Y9464841D01*
X13153897Y9448292D01*
X13152897Y9443449D01*
X13150543Y9439030D01*
X13155446Y9408131D01*
X13155774Y9396878D01*
X13156500Y9371924D01*
X13156500Y9047654D01*
X13150021Y9025590D01*
X13154858Y9015504D01*
X13156500Y8995231D01*
X13156500Y5814029D01*
X13136498Y5745908D01*
X13119595Y5724934D01*
X12967432Y5572772D01*
X12967429Y5572768D01*
X12884605Y5468021D01*
X12809274Y5306472D01*
X12773231Y5131913D01*
X12773231Y5131910D01*
X12773231Y5131909D01*
X10739430Y5131909D01*
X8226342Y7644997D01*
X10446336Y7644997D01*
X10465492Y7487221D01*
X10514090Y7359081D01*
X10521856Y7338605D01*
X10612145Y7207799D01*
X10731114Y7102401D01*
X10731115Y7102401D01*
X10731117Y7102399D01*
X10805843Y7063180D01*
X10871850Y7028537D01*
X11026172Y6990500D01*
X11026173Y6990500D01*
X11185113Y6990500D01*
X11185114Y6990500D01*
X11339436Y7028537D01*
X11480172Y7102401D01*
X11599141Y7207799D01*
X11600027Y7209082D01*
X11600914Y7209802D01*
X11604197Y7213506D01*
X11604813Y7212961D01*
X11655188Y7253779D01*
X11703719Y7263500D01*
X11747366Y7263500D01*
X11773224Y7260819D01*
X11784017Y7258555D01*
X11819809Y7263017D01*
X11827600Y7263500D01*
X11831611Y7263500D01*
X11855005Y7267404D01*
X11862887Y7268387D01*
X11910360Y7274304D01*
X11910362Y7274306D01*
X11918011Y7276583D01*
X11925584Y7279182D01*
X11925586Y7279182D01*
X11974641Y7305730D01*
X12024746Y7330224D01*
X12024750Y7330229D01*
X12031250Y7334868D01*
X12037560Y7339779D01*
X12037562Y7339780D01*
X12075339Y7380818D01*
X12246542Y7552020D01*
X12266720Y7568407D01*
X12275956Y7574440D01*
X12298103Y7602897D01*
X12303271Y7608750D01*
X12306114Y7611591D01*
X12319898Y7630899D01*
X12354158Y7674915D01*
X12354159Y7674921D01*
X12357950Y7681924D01*
X12361471Y7689127D01*
X12361475Y7689131D01*
X12370823Y7720532D01*
X12377389Y7742584D01*
X12395498Y7795334D01*
X12395500Y7795339D01*
X12395500Y7795346D01*
X12396819Y7803248D01*
X12397805Y7811158D01*
X12395500Y7866885D01*
X12395500Y8343145D01*
X12415502Y8411266D01*
X12432400Y8432236D01*
X12754544Y8754381D01*
X12774720Y8770764D01*
X12783956Y8776797D01*
X12806114Y8805268D01*
X12811282Y8811119D01*
X12814113Y8813948D01*
X12827891Y8833247D01*
X12862158Y8877272D01*
X12862158Y8877275D01*
X12865957Y8884293D01*
X12869476Y8891490D01*
X12885387Y8944937D01*
X12891581Y8962978D01*
X12903500Y8997696D01*
X12903500Y8997701D01*
X12904812Y9005565D01*
X12905467Y9010815D01*
X12907643Y9015828D01*
X12908279Y9020189D01*
X12904608Y9042447D01*
X12903500Y9069227D01*
X12903500Y9404464D01*
X12912703Y9435809D01*
X12903923Y9458610D01*
X12903500Y9468928D01*
X12903500Y10718577D01*
X12923502Y10786698D01*
X12940400Y10807667D01*
X14278542Y12145810D01*
X14298718Y12162194D01*
X14307956Y12168228D01*
X14330114Y12196699D01*
X14335282Y12202550D01*
X14338113Y12205379D01*
X14351891Y12224678D01*
X14386158Y12268703D01*
X14386158Y12268706D01*
X14389957Y12275724D01*
X14393471Y12282914D01*
X14393475Y12282918D01*
X14400875Y12307774D01*
X14409391Y12336378D01*
X14427499Y12389124D01*
X14428819Y12397039D01*
X14429805Y12404945D01*
X14427500Y12460672D01*
X14427500Y13766577D01*
X14447502Y13834698D01*
X14464399Y13855667D01*
X15236365Y14627633D01*
X15298674Y14661655D01*
X15369489Y14656591D01*
X15384003Y14650107D01*
X15463207Y14608537D01*
X15617529Y14570500D01*
X15617530Y14570500D01*
X15776470Y14570500D01*
X15776471Y14570500D01*
X15930793Y14608537D01*
X16071529Y14682401D01*
X16190498Y14787799D01*
X16280787Y14918605D01*
X16337149Y15067218D01*
X16337149Y15067219D01*
X16337150Y15067221D01*
X16356307Y15224997D01*
X16356307Y15225004D01*
X16337150Y15382780D01*
X16307655Y15460551D01*
X16280787Y15531395D01*
X16190498Y15662201D01*
X16071529Y15767599D01*
X16071528Y15767600D01*
X16071525Y15767602D01*
X15930797Y15841461D01*
X15930796Y15841462D01*
X15930793Y15841463D01*
X15930791Y15841464D01*
X15930785Y15841466D01*
X15902617Y15848409D01*
X15841263Y15884133D01*
X15808963Y15947357D01*
X15814962Y16015429D01*
X15837503Y16074865D01*
X15856661Y16232643D01*
X15856661Y16232650D01*
X15837504Y16390426D01*
X15802576Y16482522D01*
X15781141Y16539041D01*
X15690852Y16669847D01*
X15571883Y16775245D01*
X15571882Y16775246D01*
X15571879Y16775248D01*
X15431151Y16849107D01*
X15431149Y16849108D01*
X15431147Y16849109D01*
X15431145Y16849110D01*
X15431144Y16849110D01*
X15276826Y16887146D01*
X15276825Y16887146D01*
X15117883Y16887146D01*
X15117881Y16887146D01*
X14963563Y16849110D01*
X14963556Y16849107D01*
X14822828Y16775248D01*
X14822823Y16775244D01*
X14703855Y16669846D01*
X14613569Y16539045D01*
X14613566Y16539039D01*
X14557203Y16390426D01*
X14538047Y16232650D01*
X14538047Y16232643D01*
X14557203Y16074867D01*
X14579746Y16015429D01*
X14605562Y15947357D01*
X14616270Y15919125D01*
X14614840Y15918583D01*
X14627091Y15857450D01*
X14601191Y15791347D01*
X14590672Y15779407D01*
X13305455Y14494191D01*
X13285282Y14477807D01*
X13276041Y14471770D01*
X13253896Y14443318D01*
X13248736Y14437473D01*
X13245892Y14434628D01*
X13232099Y14415311D01*
X13197840Y14371295D01*
X13194030Y14364253D01*
X13190524Y14357082D01*
X13174610Y14303625D01*
X13156499Y14250872D01*
X13155184Y14242993D01*
X13154194Y14235051D01*
X13156500Y14179327D01*
X13156500Y12873426D01*
X13136498Y12805305D01*
X13119595Y12784331D01*
X11781455Y11446192D01*
X11761282Y11429808D01*
X11752041Y11423771D01*
X11729896Y11395319D01*
X11724736Y11389474D01*
X11721892Y11386629D01*
X11708099Y11367312D01*
X11673840Y11323296D01*
X11670030Y11316254D01*
X11666524Y11309083D01*
X11650610Y11255626D01*
X11632499Y11202873D01*
X11631184Y11194994D01*
X11630194Y11187052D01*
X11632500Y11131328D01*
X11632500Y9481993D01*
X11612498Y9413872D01*
X11595595Y9392898D01*
X11522202Y9319505D01*
X11459890Y9285479D01*
X11389075Y9290544D01*
X11374552Y9297033D01*
X11339440Y9315461D01*
X11339438Y9315462D01*
X11339436Y9315463D01*
X11339434Y9315464D01*
X11339433Y9315464D01*
X11185115Y9353500D01*
X11185114Y9353500D01*
X11026172Y9353500D01*
X11026170Y9353500D01*
X10871852Y9315464D01*
X10871845Y9315461D01*
X10731117Y9241602D01*
X10731112Y9241598D01*
X10612144Y9136200D01*
X10521858Y9005399D01*
X10521855Y9005393D01*
X10465492Y8856780D01*
X10446336Y8699004D01*
X10446336Y8698997D01*
X10465492Y8541221D01*
X10521855Y8392608D01*
X10521858Y8392602D01*
X10612147Y8261796D01*
X10617200Y8256092D01*
X10614804Y8253970D01*
X10644793Y8206103D01*
X10643975Y8135111D01*
X10614930Y8089919D01*
X10617200Y8087908D01*
X10612147Y8082205D01*
X10521858Y7951399D01*
X10521855Y7951393D01*
X10465492Y7802780D01*
X10446336Y7645004D01*
X10446336Y7644997D01*
X8226342Y7644997D01*
X6082405Y9788934D01*
X6048379Y9851246D01*
X6045500Y9878029D01*
X6045500Y10793532D01*
X6065502Y10861653D01*
X6119158Y10908146D01*
X6189432Y10918250D01*
X6254012Y10888756D01*
X6258450Y10884722D01*
X6341964Y10805091D01*
X6341965Y10805090D01*
X6519975Y10690692D01*
X6519980Y10690689D01*
X6716414Y10612048D01*
X6716420Y10612047D01*
X6924194Y10572001D01*
X6924203Y10572000D01*
X7276000Y10572000D01*
X7276000Y11280000D01*
X7784000Y11280000D01*
X7784000Y10572000D01*
X8082779Y10572000D01*
X8082800Y10572002D01*
X8240633Y10587073D01*
X8240648Y10587076D01*
X8443677Y10646690D01*
X8631754Y10743651D01*
X8798085Y10874456D01*
X8798091Y10874461D01*
X8936656Y11034375D01*
X8936657Y11034376D01*
X9042454Y11217623D01*
X9042458Y11217632D01*
X9111662Y11417585D01*
X9111664Y11417591D01*
X9112873Y11426000D01*
X8291686Y11426000D01*
X8307641Y11441955D01*
X8365165Y11554852D01*
X8384986Y11680000D01*
X8365165Y11805148D01*
X8307641Y11918045D01*
X8291686Y11934000D01*
X9108519Y11934000D01*
X9108519Y11934001D01*
X9081824Y12044039D01*
X9081822Y12044046D01*
X8993922Y12236516D01*
X8993920Y12236520D01*
X8871178Y12408888D01*
X8871177Y12408889D01*
X8718035Y12554910D01*
X8718034Y12554911D01*
X8540024Y12669309D01*
X8540019Y12669312D01*
X8343585Y12747953D01*
X8343579Y12747954D01*
X8135805Y12788000D01*
X7739986Y12788000D01*
X7671865Y12808002D01*
X7625372Y12861658D01*
X7615268Y12931932D01*
X7618281Y12946616D01*
X7619720Y12951986D01*
X7640523Y13110000D01*
X7640523Y13110001D01*
X7619720Y13268014D01*
X7619720Y13268015D01*
X7558728Y13415261D01*
X7461705Y13541705D01*
X7335261Y13638728D01*
X7188015Y13699720D01*
X7188013Y13699721D01*
X7069675Y13715300D01*
X7069673Y13715300D01*
X6990327Y13715300D01*
X6990324Y13715300D01*
X6871986Y13699721D01*
X6805696Y13672262D01*
X6724739Y13638728D01*
X6724738Y13638727D01*
X6724737Y13638727D01*
X6598295Y13541705D01*
X6501273Y13415264D01*
X6501271Y13415261D01*
X6440279Y13268014D01*
X6419477Y13110001D01*
X6419477Y13110000D01*
X6440279Y12951987D01*
X6440280Y12951985D01*
X6501272Y12804739D01*
X6501273Y12804738D01*
X6501275Y12804733D01*
X6502270Y12803010D01*
X6502666Y12801374D01*
X6504433Y12797110D01*
X6503767Y12796835D01*
X6519005Y12734014D01*
X6495781Y12666923D01*
X6450887Y12628023D01*
X6428248Y12616352D01*
X6428247Y12616351D01*
X6261908Y12485540D01*
X6258444Y12482237D01*
X6195338Y12449709D01*
X6124663Y12456462D01*
X6068859Y12500352D01*
X6045642Y12567445D01*
X6045500Y12573433D01*
X6045500Y14104327D01*
X8452634Y14104327D01*
X8457260Y14051445D01*
X8457500Y14045952D01*
X8457500Y14037584D01*
X8461368Y14004489D01*
X8468168Y13926763D01*
X8469652Y13919577D01*
X8469593Y13919565D01*
X8471251Y13912084D01*
X8471310Y13912097D01*
X8473001Y13904960D01*
X8499690Y13831631D01*
X8524234Y13757562D01*
X8527335Y13750912D01*
X8527280Y13750887D01*
X8530619Y13743990D01*
X8530673Y13744017D01*
X8533962Y13737468D01*
X8533965Y13737464D01*
X8533966Y13737461D01*
X8576848Y13672262D01*
X8617812Y13605851D01*
X8617813Y13605850D01*
X8617815Y13605847D01*
X8622362Y13600097D01*
X8622314Y13600060D01*
X8627154Y13594119D01*
X8627200Y13594157D01*
X8631911Y13588543D01*
X8631912Y13588542D01*
X8631915Y13588538D01*
X8688683Y13534980D01*
X9474235Y12749427D01*
X9578980Y12666605D01*
X9740527Y12591275D01*
X9915092Y12555231D01*
X10093263Y12560414D01*
X10265436Y12606548D01*
X10422330Y12691144D01*
X10555484Y12809642D01*
X10657723Y12955653D01*
X10723532Y13121306D01*
X10749367Y13297672D01*
X10739079Y13415263D01*
X10738026Y13427299D01*
X10752014Y13496904D01*
X10801413Y13547896D01*
X10870539Y13564087D01*
X10893701Y13560619D01*
X10917330Y13554796D01*
X10918529Y13554500D01*
X10918530Y13554500D01*
X11077470Y13554500D01*
X11077471Y13554500D01*
X11231793Y13592537D01*
X11372529Y13666401D01*
X11491498Y13771799D01*
X11581787Y13902605D01*
X11638149Y14051218D01*
X11638149Y14051219D01*
X11638150Y14051221D01*
X11657307Y14208997D01*
X11657307Y14209004D01*
X11638150Y14366780D01*
X11609122Y14443318D01*
X11581787Y14515395D01*
X11491498Y14646201D01*
X11491495Y14646204D01*
X11491496Y14646204D01*
X11421946Y14707820D01*
X11384221Y14767965D01*
X11379500Y14802132D01*
X11379500Y16569367D01*
X11382182Y16595227D01*
X11384445Y16606017D01*
X11379983Y16641808D01*
X11379500Y16649600D01*
X11379500Y16653613D01*
X11375594Y16677017D01*
X11368695Y16732361D01*
X11368694Y16732364D01*
X11366408Y16740041D01*
X11363819Y16747584D01*
X11337269Y16796646D01*
X11312777Y16846744D01*
X11308129Y16853254D01*
X11303216Y16859567D01*
X11262181Y16897341D01*
X11179718Y16979805D01*
X11145692Y17042117D01*
X11143732Y17084089D01*
X11149307Y17130000D01*
X11149307Y17130003D01*
X11130150Y17287780D01*
X11116538Y17323669D01*
X11073787Y17436395D01*
X10983498Y17567201D01*
X10864529Y17672599D01*
X10864528Y17672600D01*
X10864525Y17672602D01*
X10723797Y17746461D01*
X10723795Y17746462D01*
X10723793Y17746463D01*
X10723791Y17746464D01*
X10723790Y17746464D01*
X10584507Y17780794D01*
X10523153Y17816518D01*
X10490851Y17879741D01*
X10497859Y17950391D01*
X10525565Y17992228D01*
X10552573Y18019235D01*
X10635395Y18123980D01*
X10710725Y18285527D01*
X10746769Y18460092D01*
X10741586Y18638263D01*
X10695452Y18810436D01*
X10610856Y18967330D01*
X10492358Y19100484D01*
X10346347Y19202723D01*
X10180694Y19268532D01*
X10004328Y19294367D01*
X10004327Y19294367D01*
X9826759Y19278831D01*
X9657560Y19222765D01*
X9505850Y19129189D01*
X9505849Y19129188D01*
X8726598Y18349938D01*
X8712749Y18337969D01*
X8693178Y18323399D01*
X8693176Y18323397D01*
X8659056Y18282735D01*
X8655349Y18278689D01*
X8649428Y18272767D01*
X8649427Y18272765D01*
X8628754Y18246621D01*
X8578604Y18186853D01*
X8574574Y18180725D01*
X8574523Y18180758D01*
X8570405Y18174294D01*
X8570455Y18174263D01*
X8566607Y18168026D01*
X8533625Y18097295D01*
X8498604Y18027562D01*
X8496095Y18020668D01*
X8496039Y18020689D01*
X8493525Y18013455D01*
X8493582Y18013436D01*
X8491275Y18006476D01*
X8475498Y17930066D01*
X8457499Y17854122D01*
X8456648Y17846833D01*
X8456587Y17846841D01*
X8455809Y17839227D01*
X8455871Y17839221D01*
X8455231Y17831910D01*
X8457500Y17753925D01*
X8457500Y14146729D01*
X8456170Y14128470D01*
X8452634Y14104332D01*
X8452634Y14104327D01*
X6045500Y14104327D01*
X6045500Y19433532D01*
X6065502Y19501653D01*
X6119158Y19548146D01*
X6189432Y19558250D01*
X6254012Y19528756D01*
X6258450Y19524722D01*
X6341962Y19445093D01*
X6462294Y19367762D01*
X6508787Y19314106D01*
X6518892Y19243833D01*
X6503295Y19198767D01*
X6501275Y19195268D01*
X6501273Y19195264D01*
X6501272Y19195262D01*
X6473904Y19129189D01*
X6440279Y19048014D01*
X6419477Y18890001D01*
X6419477Y18890000D01*
X6440279Y18731987D01*
X6449210Y18710425D01*
X6501272Y18584739D01*
X6598295Y18458295D01*
X6724739Y18361272D01*
X6871985Y18300280D01*
X6990327Y18284700D01*
X6990334Y18284700D01*
X7069666Y18284700D01*
X7069673Y18284700D01*
X7188015Y18300280D01*
X7335261Y18361272D01*
X7461705Y18458295D01*
X7558728Y18584738D01*
X7619720Y18731985D01*
X7640523Y18890000D01*
X7619720Y19048015D01*
X7619718Y19048019D01*
X7618279Y19053392D01*
X7619971Y19124369D01*
X7659767Y19183163D01*
X7725032Y19211109D01*
X7739987Y19212000D01*
X8082779Y19212000D01*
X8082800Y19212002D01*
X8240633Y19227073D01*
X8240648Y19227076D01*
X8443677Y19286690D01*
X8631754Y19383651D01*
X8798085Y19514456D01*
X8798091Y19514461D01*
X8936656Y19674375D01*
X8936657Y19674376D01*
X9042454Y19857623D01*
X9042458Y19857632D01*
X9111662Y20057585D01*
X9111664Y20057591D01*
X9112873Y20066000D01*
X8291686Y20066000D01*
X8307641Y20081955D01*
X8365165Y20194852D01*
X8384986Y20320000D01*
X8365165Y20445148D01*
X8307641Y20558045D01*
X8291686Y20574000D01*
X9108519Y20574000D01*
X9108519Y20574001D01*
X9081824Y20684039D01*
X9081822Y20684046D01*
X8993922Y20876517D01*
X8993356Y20877498D01*
X8993221Y20878052D01*
X8991428Y20881979D01*
X8992184Y20882325D01*
X8976617Y20946493D01*
X8999836Y21013586D01*
X9055643Y21057474D01*
X9102474Y21066500D01*
X9232972Y21066500D01*
X9301093Y21046498D01*
X9322067Y21029596D01*
X10236235Y20115427D01*
X10340980Y20032605D01*
X10502526Y19957275D01*
X10677091Y19921231D01*
X10855263Y19926415D01*
X11027436Y19972548D01*
X11184329Y20057145D01*
X11317484Y20175642D01*
X11419722Y20321653D01*
X11485532Y20487307D01*
X11511366Y20663672D01*
X11495831Y20841240D01*
X11439765Y21010440D01*
X11346188Y21162150D01*
X11346185Y21162153D01*
X11346182Y21162157D01*
X10806342Y21701997D01*
X14802582Y21701997D01*
X14822206Y21502739D01*
X14822206Y21502737D01*
X14880332Y21311123D01*
X14880334Y21311117D01*
X14974720Y21134534D01*
X14974722Y21134531D01*
X15101748Y20979748D01*
X15256531Y20852722D01*
X15433120Y20758333D01*
X15624731Y20700208D01*
X15624736Y20700208D01*
X15624738Y20700207D01*
X15734069Y20689440D01*
X15774066Y20685500D01*
X16913966Y20685500D01*
X16920145Y20685196D01*
X16966998Y20680581D01*
X16967000Y20680581D01*
X16967001Y20680581D01*
X17066889Y20690420D01*
X17166260Y20700207D01*
X17166263Y20700207D01*
X17166264Y20700208D01*
X17166269Y20700208D01*
X17357880Y20758333D01*
X17534469Y20852722D01*
X17689252Y20979748D01*
X17719128Y21016154D01*
X17723260Y21020714D01*
X19256145Y22553598D01*
X19318455Y22587621D01*
X19345238Y22590500D01*
X19464513Y22590500D01*
X19532634Y22570498D01*
X19579127Y22516842D01*
X19589231Y22446568D01*
X19581611Y22417983D01*
X19527468Y22281693D01*
X19501634Y22105328D01*
X19517169Y21927760D01*
X19568679Y21772308D01*
X19573236Y21758558D01*
X19666808Y21606855D01*
X19666811Y21606852D01*
X19666812Y21606851D01*
X20358596Y20915067D01*
X20392620Y20852756D01*
X20395500Y20825973D01*
X20395500Y12132586D01*
X20411001Y11999959D01*
X20411002Y11999957D01*
X20471964Y11832464D01*
X20471967Y11832458D01*
X20569910Y11683543D01*
X20569914Y11683539D01*
X20569915Y11683538D01*
X20615344Y11640678D01*
X20699567Y11561217D01*
X20829843Y11486002D01*
X20853933Y11472094D01*
X21024692Y11420972D01*
X21202637Y11410608D01*
X21378176Y11441560D01*
X21378181Y11441562D01*
X21541839Y11512157D01*
X21541840Y11512158D01*
X21541839Y11512158D01*
X21541845Y11512160D01*
X21684822Y11618602D01*
X21684824Y11618605D01*
X21690708Y11622985D01*
X21692206Y11620972D01*
X21744891Y11647790D01*
X21815531Y11640678D01*
X21871111Y11596504D01*
X21893986Y11529294D01*
X21894100Y11523946D01*
X21894100Y10619733D01*
X21874098Y10551612D01*
X21857195Y10530638D01*
X21400962Y10074405D01*
X21338650Y10040379D01*
X21311867Y10037500D01*
X21205527Y10037500D01*
X21051209Y9999464D01*
X21051202Y9999461D01*
X20910474Y9925602D01*
X20910469Y9925598D01*
X20791501Y9820200D01*
X20701215Y9689399D01*
X20701212Y9689393D01*
X20644849Y9540780D01*
X20625693Y9383004D01*
X20625693Y9382997D01*
X20644849Y9225221D01*
X20667511Y9165468D01*
X20701213Y9076605D01*
X20791502Y8945799D01*
X20910471Y8840401D01*
X20910472Y8840401D01*
X20910474Y8840399D01*
X20960867Y8813951D01*
X21051207Y8766537D01*
X21205529Y8728500D01*
X21205530Y8728500D01*
X21364470Y8728500D01*
X21364471Y8728500D01*
X21518793Y8766537D01*
X21659529Y8840401D01*
X21778498Y8945799D01*
X21868787Y9076605D01*
X21925149Y9225218D01*
X21925149Y9225219D01*
X21925150Y9225221D01*
X21939096Y9340084D01*
X21944307Y9383000D01*
X21942621Y9396881D01*
X21954264Y9466914D01*
X21978604Y9501163D01*
X22611366Y10133923D01*
X22634292Y10156849D01*
X22644509Y10176902D01*
X22654842Y10193763D01*
X22668070Y10211968D01*
X22675025Y10233377D01*
X22682590Y10251641D01*
X22692809Y10271694D01*
X22696331Y10293936D01*
X22700943Y10313144D01*
X22707900Y10334554D01*
X22707900Y10463446D01*
X22707900Y22179766D01*
X22727902Y22247887D01*
X22744805Y22268861D01*
X22974405Y22498461D01*
X23036717Y22532487D01*
X23107532Y22527422D01*
X23164368Y22484875D01*
X23189179Y22418355D01*
X23189500Y22409366D01*
X23189500Y20246217D01*
X23186622Y20219438D01*
X23185580Y20214649D01*
X23189339Y20162084D01*
X23189500Y20157588D01*
X23189500Y20141630D01*
X23191769Y20125840D01*
X23192249Y20121373D01*
X23196010Y20068801D01*
X23196011Y20068796D01*
X23197726Y20064199D01*
X23204381Y20038124D01*
X23205078Y20033276D01*
X23205082Y20033262D01*
X23226969Y19985335D01*
X23228690Y19981181D01*
X23247110Y19931798D01*
X23247112Y19931794D01*
X23250048Y19927872D01*
X23263788Y19904714D01*
X23265822Y19900260D01*
X23265824Y19900257D01*
X23300329Y19860436D01*
X23303152Y19856933D01*
X23312717Y19844155D01*
X23312719Y19844153D01*
X23312720Y19844152D01*
X23324012Y19832860D01*
X23327067Y19829579D01*
X23361580Y19789749D01*
X23365691Y19787107D01*
X23386671Y19770201D01*
X25950451Y17206421D01*
X25984477Y17144109D01*
X25986564Y17131435D01*
X25986726Y17130000D01*
X26005763Y16961046D01*
X26005763Y16961044D01*
X26005764Y16961043D01*
X26061918Y16800563D01*
X26061919Y16800561D01*
X26152375Y16656601D01*
X26152377Y16656598D01*
X26272597Y16536378D01*
X26272600Y16536376D01*
X26416563Y16445918D01*
X26577046Y16389763D01*
X26746000Y16370726D01*
X26914954Y16389763D01*
X27075437Y16445918D01*
X27219400Y16536376D01*
X27339624Y16656600D01*
X27430082Y16800563D01*
X27486237Y16961046D01*
X27505274Y17130000D01*
X27486237Y17298954D01*
X27430082Y17459437D01*
X27339624Y17603400D01*
X27339622Y17603403D01*
X27219402Y17723623D01*
X27219399Y17723625D01*
X27075439Y17814081D01*
X27075437Y17814082D01*
X26914957Y17870236D01*
X26914956Y17870237D01*
X26914954Y17870237D01*
X26798964Y17883307D01*
X26744565Y17889436D01*
X26679113Y17916940D01*
X26669579Y17925549D01*
X24243405Y20351723D01*
X24209379Y20414035D01*
X24206500Y20440818D01*
X24206500Y25824792D01*
X24209379Y25851573D01*
X24210419Y25856352D01*
X24206661Y25908904D01*
X24206500Y25913400D01*
X24206500Y25929369D01*
X24204228Y25945169D01*
X24203747Y25949644D01*
X24199988Y26002200D01*
X24199988Y26002201D01*
X24198278Y26006784D01*
X24191614Y26032896D01*
X24190919Y26037734D01*
X24169019Y26085687D01*
X24167303Y26089830D01*
X24148888Y26139204D01*
X24145951Y26143128D01*
X24132212Y26166284D01*
X24130176Y26170743D01*
X24118970Y26183676D01*
X24095664Y26210573D01*
X24092842Y26214075D01*
X24083286Y26226841D01*
X24083277Y26226851D01*
X24082030Y26228098D01*
X24071977Y26238151D01*
X24068940Y26241413D01*
X24034421Y26281250D01*
X24034419Y26281252D01*
X24030300Y26283899D01*
X24009327Y26300801D01*
X21565799Y28744329D01*
X21548893Y28765309D01*
X21546251Y28769420D01*
X21506421Y28803933D01*
X21503140Y28806988D01*
X21491848Y28818280D01*
X21491847Y28818281D01*
X21491845Y28818283D01*
X21479067Y28827848D01*
X21475564Y28830671D01*
X21435743Y28865176D01*
X21435740Y28865178D01*
X21431286Y28867212D01*
X21408128Y28880952D01*
X21404206Y28883888D01*
X21404202Y28883890D01*
X21354819Y28902310D01*
X21350665Y28904031D01*
X21302738Y28925918D01*
X21302724Y28925922D01*
X21297876Y28926619D01*
X21271801Y28933274D01*
X21267204Y28934989D01*
X21267199Y28934990D01*
X21214627Y28938751D01*
X21210160Y28939231D01*
X21194370Y28941500D01*
X21194368Y28941500D01*
X21178413Y28941500D01*
X21173917Y28941661D01*
X21121352Y28945421D01*
X21121351Y28945420D01*
X21116566Y28944379D01*
X21089784Y28941500D01*
X18339714Y28941500D01*
X18271593Y28961502D01*
X18250623Y28978401D01*
X18202400Y29026624D01*
X18202399Y29026625D01*
X18202398Y29026626D01*
X18058439Y29117081D01*
X18058437Y29117082D01*
X17897954Y29173237D01*
X17729000Y29192274D01*
X17560046Y29173237D01*
X17560043Y29173237D01*
X17560043Y29173236D01*
X17399562Y29117082D01*
X17399560Y29117081D01*
X17255600Y29026625D01*
X17255597Y29026623D01*
X17135377Y28906403D01*
X17135375Y28906400D01*
X17044919Y28762440D01*
X17044918Y28762438D01*
X16988764Y28601957D01*
X16988763Y28601954D01*
X16969726Y28433000D01*
X16988763Y28264046D01*
X16988764Y28264044D01*
X17044918Y28103563D01*
X17044919Y28103561D01*
X17135375Y27959601D01*
X17135377Y27959598D01*
X17255597Y27839378D01*
X17255600Y27839376D01*
X17399563Y27748918D01*
X17560046Y27692763D01*
X17729000Y27673726D01*
X17897954Y27692763D01*
X18058437Y27748918D01*
X18202400Y27839376D01*
X18250620Y27887597D01*
X18312930Y27921620D01*
X18339714Y27924500D01*
X20895182Y27924500D01*
X20963303Y27904498D01*
X20984277Y27887595D01*
X21594877Y27276995D01*
X21628903Y27214683D01*
X21623838Y27143868D01*
X21581291Y27087032D01*
X21514771Y27062221D01*
X21505782Y27061900D01*
X18558487Y27061900D01*
X18490366Y27081902D01*
X18474934Y27093588D01*
X18357534Y27197595D01*
X18357525Y27197602D01*
X18216797Y27271461D01*
X18216795Y27271462D01*
X18216793Y27271463D01*
X18216791Y27271464D01*
X18216790Y27271464D01*
X18062472Y27309500D01*
X18062471Y27309500D01*
X17903529Y27309500D01*
X17903527Y27309500D01*
X17749209Y27271464D01*
X17749202Y27271461D01*
X17608474Y27197602D01*
X17608469Y27197598D01*
X17489501Y27092200D01*
X17399215Y26961399D01*
X17399212Y26961393D01*
X17342849Y26812780D01*
X17323693Y26655004D01*
X17323693Y26654997D01*
X17342849Y26497221D01*
X17391447Y26369081D01*
X17399213Y26348605D01*
X17489502Y26217799D01*
X17608471Y26112401D01*
X17608472Y26112401D01*
X17608474Y26112399D01*
X17651476Y26089830D01*
X17749207Y26038537D01*
X17903529Y26000500D01*
X17903530Y26000500D01*
X18062470Y26000500D01*
X18062471Y26000500D01*
X18216793Y26038537D01*
X18357529Y26112401D01*
X18391377Y26142388D01*
X18474934Y26216412D01*
X18539187Y26246613D01*
X18558487Y26248100D01*
X21445267Y26248100D01*
X21513388Y26228098D01*
X21534362Y26211195D01*
X21632044Y26113513D01*
X21666070Y26051201D01*
X21661005Y25980386D01*
X21618458Y25923550D01*
X21551938Y25898739D01*
X21542949Y25898418D01*
X21538997Y25898418D01*
X21339738Y25878794D01*
X21339727Y25878792D01*
X21148124Y25820670D01*
X21148120Y25820668D01*
X20971533Y25726280D01*
X20971531Y25726279D01*
X20971530Y25726278D01*
X20943780Y25703505D01*
X20857951Y25633068D01*
X20816750Y25599254D01*
X20786883Y25562863D01*
X20782729Y25558280D01*
X19884857Y24660405D01*
X19822544Y24626380D01*
X19795761Y24623500D01*
X18925037Y24623500D01*
X18918857Y24623804D01*
X18872002Y24628419D01*
X18871998Y24628419D01*
X18772365Y24618606D01*
X18672731Y24608792D01*
X18556483Y24573529D01*
X18481122Y24550668D01*
X18481116Y24550666D01*
X18304533Y24456280D01*
X18149747Y24329252D01*
X18119875Y24292852D01*
X18115721Y24288269D01*
X16582857Y22755405D01*
X16520545Y22721380D01*
X16493762Y22718500D01*
X15774057Y22718500D01*
X15624739Y22703794D01*
X15624736Y22703794D01*
X15433122Y22645668D01*
X15433116Y22645666D01*
X15256533Y22551280D01*
X15101748Y22424252D01*
X14974720Y22269467D01*
X14880334Y22092884D01*
X14880332Y22092878D01*
X14822206Y21901264D01*
X14822206Y21901262D01*
X14802582Y21702004D01*
X14802582Y21701997D01*
X10806342Y21701997D01*
X10185942Y22322396D01*
X10173970Y22336248D01*
X10159398Y22355822D01*
X10159396Y22355824D01*
X10118730Y22389948D01*
X10114676Y22393662D01*
X10108771Y22399568D01*
X10082619Y22420247D01*
X10022855Y22470395D01*
X10016728Y22474424D01*
X10016761Y22474476D01*
X10010303Y22478590D01*
X10010272Y22478539D01*
X10004022Y22482394D01*
X9998701Y22484875D01*
X9933294Y22515375D01*
X9920768Y22521666D01*
X9863572Y22550392D01*
X9856671Y22552903D01*
X9856691Y22552961D01*
X9849459Y22555475D01*
X9849440Y22555417D01*
X9842476Y22557725D01*
X9766065Y22573502D01*
X9690120Y22591501D01*
X9682833Y22592352D01*
X9682840Y22592413D01*
X9675226Y22593191D01*
X9675221Y22593129D01*
X9667909Y22593769D01*
X9589924Y22591500D01*
X6363728Y22591500D01*
X6345468Y22592830D01*
X6321328Y22596366D01*
X6268445Y22591740D01*
X6262952Y22591500D01*
X6254583Y22591500D01*
X6227004Y22588277D01*
X6221488Y22587632D01*
X6209399Y22586575D01*
X6143766Y22580832D01*
X6143762Y22580832D01*
X6143760Y22580831D01*
X6143758Y22580831D01*
X6136573Y22579347D01*
X6136560Y22579406D01*
X6129083Y22577748D01*
X6129097Y22577690D01*
X6121956Y22575998D01*
X6048630Y22549310D01*
X5974567Y22524769D01*
X5967915Y22521666D01*
X5967890Y22521720D01*
X5960988Y22518378D01*
X5961015Y22518326D01*
X5954466Y22515038D01*
X5889261Y22472152D01*
X5822849Y22431187D01*
X5817098Y22426639D01*
X5817060Y22426686D01*
X5811123Y22421850D01*
X5811161Y22421804D01*
X5805540Y22417088D01*
X5751978Y22360316D01*
X4789598Y21397938D01*
X4775749Y21385969D01*
X4756178Y21371399D01*
X4756176Y21371397D01*
X4722056Y21330735D01*
X4718349Y21326689D01*
X4712428Y21320767D01*
X4712427Y21320765D01*
X4702941Y21308769D01*
X4691754Y21294621D01*
X4641603Y21234852D01*
X4638665Y21230385D01*
X4584516Y21184468D01*
X4514138Y21175115D01*
X4457468Y21199084D01*
X4312220Y21308769D01*
X4312215Y21308773D01*
X4120115Y21404427D01*
X4120109Y21404430D01*
X3913690Y21463160D01*
X3753541Y21478000D01*
X3604000Y21478000D01*
X3604000Y20720000D01*
X3096000Y20720000D01*
X3096000Y21478000D01*
X2946459Y21478000D01*
X2786311Y21463160D01*
X2786307Y21463160D01*
X2579890Y21404430D01*
X2579884Y21404427D01*
X2387784Y21308773D01*
X2387779Y21308769D01*
X2216516Y21179438D01*
X2071936Y21020841D01*
X2071935Y21020840D01*
X1958966Y20838388D01*
X1958958Y20838372D01*
X1881436Y20638267D01*
X1881435Y20638264D01*
X1869423Y20574000D01*
X2738314Y20574000D01*
X2722359Y20558045D01*
X2664835Y20445148D01*
X2645014Y20320000D01*
X2664835Y20194852D01*
X2722359Y20081955D01*
X2738314Y20066000D01*
X1869423Y20066000D01*
X1881435Y20001737D01*
X1881436Y20001734D01*
X1958958Y19801629D01*
X1958966Y19801613D01*
X2071935Y19619161D01*
X2071936Y19619160D01*
X2216516Y19460563D01*
X2387779Y19331232D01*
X2387784Y19331228D01*
X2579884Y19235574D01*
X2579890Y19235571D01*
X2786309Y19176841D01*
X2946459Y19162000D01*
X3096000Y19162000D01*
X3096000Y19920000D01*
X3604000Y19920000D01*
X3604000Y19162000D01*
X3753541Y19162000D01*
X3913688Y19176841D01*
X3913692Y19176841D01*
X4120109Y19235571D01*
X4120115Y19235574D01*
X4312215Y19331228D01*
X4312216Y19331229D01*
X4318565Y19336023D01*
X4384980Y19361115D01*
X4454417Y19346317D01*
X4504831Y19296327D01*
X4520500Y19235475D01*
X4520500Y12764526D01*
X4500498Y12696405D01*
X4446842Y12649912D01*
X4376568Y12639808D01*
X4318571Y12663973D01*
X4312216Y12668772D01*
X4312215Y12668773D01*
X4120115Y12764427D01*
X4120109Y12764430D01*
X3913690Y12823160D01*
X3753541Y12838000D01*
X3604000Y12838000D01*
X3604000Y12080000D01*
X3096000Y12080000D01*
X3096000Y12838000D01*
X2946459Y12838000D01*
X2786311Y12823160D01*
X2786307Y12823160D01*
X2579890Y12764430D01*
X2579884Y12764427D01*
X2387784Y12668773D01*
X2387779Y12668769D01*
X2216516Y12539438D01*
X2071936Y12380841D01*
X2071935Y12380840D01*
X1958966Y12198388D01*
X1958958Y12198372D01*
X1881436Y11998267D01*
X1881435Y11998264D01*
X1869423Y11934000D01*
X2738314Y11934000D01*
X2722359Y11918045D01*
X2664835Y11805148D01*
X2645014Y11680000D01*
X2664835Y11554852D01*
X2722359Y11441955D01*
X2738314Y11426000D01*
X1869423Y11426000D01*
X254500Y11426000D01*
X254500Y31619500D01*
X274502Y31687621D01*
X328158Y31734114D01*
X380500Y31745500D01*
X29619500Y31745500D01*
X29687621Y31725498D01*
G37*
%TD.AperFunction*%
M02*
