M48
; DRILL file {KiCad 7.0.9-7.0.9~ubuntu22.04.1} date 22.02.2024 (чт) 15:11:46
; FORMAT={-:-/ absolute / inch / decimal}
; #@! TF.CreationDate,2024-02-22T15:11:46+02:00
; #@! TF.GenerationSoftware,Kicad,Pcbnew,7.0.9-7.0.9~ubuntu22.04.1
; #@! TF.FileFunction,Plated,1,2,PTH
FMAT,2
INCH
; #@! TA.AperFunction,Plated,PTH,ViaDrill
T1C0.0157
; #@! TA.AperFunction,Plated,PTH,ViaDrill
T2C0.0236
; #@! TA.AperFunction,Plated,PTH,ComponentDrill
T3C0.0236
; #@! TA.AperFunction,Plated,PTH,ComponentDrill
T4C0.0315
; #@! TA.AperFunction,Plated,PTH,ComponentDrill
T5C0.0394
; #@! TA.AperFunction,Plated,PTH,ComponentDrill
T6C0.1299
%
G90
G05
T1
X0.388Y1.1994
X0.3986Y0.63
X0.413Y0.6744
X0.418Y0.4144
X0.433Y0.5594
X0.4372Y0.3425
X0.4372Y0.301
X0.548Y1.1994
X0.553Y0.6244
X0.5983Y0.6391
X0.603Y0.5444
X0.613Y0.4694
X0.618Y0.5994
X0.638Y0.1794
X0.6855Y0.1219
X0.693Y0.4394
X0.708Y1.0494
X0.723Y0.7394
X0.838Y0.3694
T2
X0.048Y0.8194
X0.048Y0.6794
X0.048Y0.5394
X0.048Y0.3944
X0.153Y0.6044
X0.163Y0.3144
X0.203Y0.9394
X0.258Y0.5994
X0.353Y0.9394
X0.393Y0.7294
X0.393Y0.5244
X0.423Y0.8144
X0.428Y0.2344
X0.438Y0.1444
X0.463Y1.1394
X0.473Y0.8744
X0.483Y0.5244
X0.533Y0.1994
X0.608Y0.7294
X0.618Y0.9744
X0.623Y0.8544
X0.6529Y0.6543
X0.668Y0.8544
X0.698Y1.1194
X0.718Y0.7894
X0.738Y0.3444
X0.738Y0.2894
X0.778Y0.6494
X0.793Y1.2194
X0.798Y0.8694
X0.833Y0.4794
X0.833Y0.4244
X0.848Y0.9794
X0.848Y0.9294
X0.848Y0.2894
X0.873Y0.0844
X1.053Y0.6744
X1.058Y0.7844
X1.058Y0.5794
X1.073Y0.3794
X1.118Y0.2844
X1.138Y0.8794
X1.138Y0.6844
X1.138Y0.4794
T3
X0.0428Y1.122
X0.0428Y0.1378
X0.0728Y1.187
X0.0728Y1.052
X0.0728Y0.2028
X0.0728Y0.0678
X0.1378Y1.217
X0.1378Y1.027
X0.1378Y0.2328
X0.1378Y0.0428
X0.2028Y1.187
X0.2028Y1.057
X0.2028Y0.2028
X0.2028Y0.0728
X0.2328Y1.122
X0.2328Y0.1378
X0.9483Y1.122
X0.9483Y0.1378
X0.9783Y1.187
X0.9783Y1.052
X0.9783Y0.2028
X0.9783Y0.0678
X1.0433Y1.217
X1.0433Y1.027
X1.0433Y0.2328
X1.0433Y0.0428
X1.1083Y1.187
X1.1083Y1.057
X1.1083Y0.2028
X1.1083Y0.0728
X1.1383Y1.122
X1.1383Y0.1378
T5
X0.6131Y0.3414
T6
X0.1378Y1.122
X0.1378Y0.1378
X1.0433Y1.122
X1.0433Y0.1378
T4
G00X0.1437Y0.8
M15
G01X0.1201Y0.8
M16
G05
G00X0.1437Y0.4598
M15
G01X0.1201Y0.4598
M16
G05
G00X0.3142Y0.8
M15
G01X0.2787Y0.8
M16
G05
G00X0.3142Y0.4598
M15
G01X0.2787Y0.4598
M16
G05
T0
M30
