%TF.GenerationSoftware,KiCad,Pcbnew,7.0.9-7.0.9~ubuntu22.04.1*%
%TF.CreationDate,2024-02-22T15:11:35+02:00*%
%TF.ProjectId,USB-SERIAL-L_Rev_B,5553422d-5345-4524-9941-4c2d4c5f5265,B*%
%TF.SameCoordinates,PX5f5e100PY7270e00*%
%TF.FileFunction,Legend,Bot*%
%TF.FilePolarity,Positive*%
%FSLAX46Y46*%
G04 Gerber Fmt 4.6, Leading zero omitted, Abs format (unit mm)*
G04 Created by KiCad (PCBNEW 7.0.9-7.0.9~ubuntu22.04.1) date 2024-02-22 15:11:35*
%MOMM*%
%LPD*%
G01*
G04 APERTURE LIST*
%ADD10C,0.381000*%
%ADD11C,0.317500*%
%ADD12C,0.304800*%
%ADD13C,0.254000*%
%ADD14C,0.180000*%
%ADD15C,0.500000*%
%ADD16C,0.350000*%
%ADD17C,0.400000*%
%ADD18C,0.700000*%
%ADD19C,0.100000*%
%ADD20C,0.150000*%
%ADD21C,0.370000*%
%ADD22C,0.380000*%
%ADD23C,1.000000*%
%ADD24C,0.420000*%
%ADD25C,0.200000*%
%ADD26C,0.127000*%
%ADD27C,0.508000*%
%ADD28C,0.300000*%
G04 APERTURE END LIST*
D10*
X23095656Y28281181D02*
X23095656Y27047467D01*
X23095656Y27047467D02*
X23023085Y26902324D01*
X23023085Y26902324D02*
X22950514Y26829752D01*
X22950514Y26829752D02*
X22805371Y26757181D01*
X22805371Y26757181D02*
X22515085Y26757181D01*
X22515085Y26757181D02*
X22369942Y26829752D01*
X22369942Y26829752D02*
X22297371Y26902324D01*
X22297371Y26902324D02*
X22224799Y27047467D01*
X22224799Y27047467D02*
X22224799Y28281181D01*
X21571657Y26829752D02*
X21353943Y26757181D01*
X21353943Y26757181D02*
X20991085Y26757181D01*
X20991085Y26757181D02*
X20845943Y26829752D01*
X20845943Y26829752D02*
X20773371Y26902324D01*
X20773371Y26902324D02*
X20700800Y27047467D01*
X20700800Y27047467D02*
X20700800Y27192610D01*
X20700800Y27192610D02*
X20773371Y27337752D01*
X20773371Y27337752D02*
X20845943Y27410324D01*
X20845943Y27410324D02*
X20991085Y27482895D01*
X20991085Y27482895D02*
X21281371Y27555467D01*
X21281371Y27555467D02*
X21426514Y27628038D01*
X21426514Y27628038D02*
X21499085Y27700610D01*
X21499085Y27700610D02*
X21571657Y27845752D01*
X21571657Y27845752D02*
X21571657Y27990895D01*
X21571657Y27990895D02*
X21499085Y28136038D01*
X21499085Y28136038D02*
X21426514Y28208610D01*
X21426514Y28208610D02*
X21281371Y28281181D01*
X21281371Y28281181D02*
X20918514Y28281181D01*
X20918514Y28281181D02*
X20700800Y28208610D01*
X19539656Y27555467D02*
X19321942Y27482895D01*
X19321942Y27482895D02*
X19249371Y27410324D01*
X19249371Y27410324D02*
X19176799Y27265181D01*
X19176799Y27265181D02*
X19176799Y27047467D01*
X19176799Y27047467D02*
X19249371Y26902324D01*
X19249371Y26902324D02*
X19321942Y26829752D01*
X19321942Y26829752D02*
X19467085Y26757181D01*
X19467085Y26757181D02*
X20047656Y26757181D01*
X20047656Y26757181D02*
X20047656Y28281181D01*
X20047656Y28281181D02*
X19539656Y28281181D01*
X19539656Y28281181D02*
X19394514Y28208610D01*
X19394514Y28208610D02*
X19321942Y28136038D01*
X19321942Y28136038D02*
X19249371Y27990895D01*
X19249371Y27990895D02*
X19249371Y27845752D01*
X19249371Y27845752D02*
X19321942Y27700610D01*
X19321942Y27700610D02*
X19394514Y27628038D01*
X19394514Y27628038D02*
X19539656Y27555467D01*
X19539656Y27555467D02*
X20047656Y27555467D01*
X18523656Y27337752D02*
X17362514Y27337752D01*
X16709371Y26829752D02*
X16491657Y26757181D01*
X16491657Y26757181D02*
X16128799Y26757181D01*
X16128799Y26757181D02*
X15983657Y26829752D01*
X15983657Y26829752D02*
X15911085Y26902324D01*
X15911085Y26902324D02*
X15838514Y27047467D01*
X15838514Y27047467D02*
X15838514Y27192610D01*
X15838514Y27192610D02*
X15911085Y27337752D01*
X15911085Y27337752D02*
X15983657Y27410324D01*
X15983657Y27410324D02*
X16128799Y27482895D01*
X16128799Y27482895D02*
X16419085Y27555467D01*
X16419085Y27555467D02*
X16564228Y27628038D01*
X16564228Y27628038D02*
X16636799Y27700610D01*
X16636799Y27700610D02*
X16709371Y27845752D01*
X16709371Y27845752D02*
X16709371Y27990895D01*
X16709371Y27990895D02*
X16636799Y28136038D01*
X16636799Y28136038D02*
X16564228Y28208610D01*
X16564228Y28208610D02*
X16419085Y28281181D01*
X16419085Y28281181D02*
X16056228Y28281181D01*
X16056228Y28281181D02*
X15838514Y28208610D01*
X15185370Y27555467D02*
X14677370Y27555467D01*
X14459656Y26757181D02*
X15185370Y26757181D01*
X15185370Y26757181D02*
X15185370Y28281181D01*
X15185370Y28281181D02*
X14459656Y28281181D01*
X12935656Y26757181D02*
X13443656Y27482895D01*
X13806513Y26757181D02*
X13806513Y28281181D01*
X13806513Y28281181D02*
X13225942Y28281181D01*
X13225942Y28281181D02*
X13080799Y28208610D01*
X13080799Y28208610D02*
X13008228Y28136038D01*
X13008228Y28136038D02*
X12935656Y27990895D01*
X12935656Y27990895D02*
X12935656Y27773181D01*
X12935656Y27773181D02*
X13008228Y27628038D01*
X13008228Y27628038D02*
X13080799Y27555467D01*
X13080799Y27555467D02*
X13225942Y27482895D01*
X13225942Y27482895D02*
X13806513Y27482895D01*
X12282513Y26757181D02*
X12282513Y28281181D01*
X11629371Y27192610D02*
X10903657Y27192610D01*
X11774514Y26757181D02*
X11266514Y28281181D01*
X11266514Y28281181D02*
X10758514Y26757181D01*
X9524799Y26757181D02*
X10250513Y26757181D01*
X10250513Y26757181D02*
X10250513Y28281181D01*
X9016799Y27337752D02*
X7855657Y27337752D01*
X6404228Y26757181D02*
X7129942Y26757181D01*
X7129942Y26757181D02*
X7129942Y28281181D01*
D11*
X22434046Y30232651D02*
X22192141Y29385984D01*
X22192141Y29385984D02*
X21950236Y29990746D01*
X21950236Y29990746D02*
X21708332Y29385984D01*
X21708332Y29385984D02*
X21466427Y30232651D01*
X21103570Y30232651D02*
X20861665Y29385984D01*
X20861665Y29385984D02*
X20619760Y29990746D01*
X20619760Y29990746D02*
X20377856Y29385984D01*
X20377856Y29385984D02*
X20135951Y30232651D01*
X19773094Y30232651D02*
X19531189Y29385984D01*
X19531189Y29385984D02*
X19289284Y29990746D01*
X19289284Y29990746D02*
X19047380Y29385984D01*
X19047380Y29385984D02*
X18805475Y30232651D01*
X18321666Y29506937D02*
X18261189Y29446460D01*
X18261189Y29446460D02*
X18321666Y29385984D01*
X18321666Y29385984D02*
X18382142Y29446460D01*
X18382142Y29446460D02*
X18321666Y29506937D01*
X18321666Y29506937D02*
X18321666Y29385984D01*
X17535475Y29385984D02*
X17656427Y29446460D01*
X17656427Y29446460D02*
X17716904Y29506937D01*
X17716904Y29506937D02*
X17777380Y29627889D01*
X17777380Y29627889D02*
X17777380Y29990746D01*
X17777380Y29990746D02*
X17716904Y30111699D01*
X17716904Y30111699D02*
X17656427Y30172175D01*
X17656427Y30172175D02*
X17535475Y30232651D01*
X17535475Y30232651D02*
X17354046Y30232651D01*
X17354046Y30232651D02*
X17233094Y30172175D01*
X17233094Y30172175D02*
X17172618Y30111699D01*
X17172618Y30111699D02*
X17112142Y29990746D01*
X17112142Y29990746D02*
X17112142Y29627889D01*
X17112142Y29627889D02*
X17172618Y29506937D01*
X17172618Y29506937D02*
X17233094Y29446460D01*
X17233094Y29446460D02*
X17354046Y29385984D01*
X17354046Y29385984D02*
X17535475Y29385984D01*
X16386427Y29385984D02*
X16507379Y29446460D01*
X16507379Y29446460D02*
X16567856Y29567413D01*
X16567856Y29567413D02*
X16567856Y30655984D01*
X15902618Y29385984D02*
X15902618Y30232651D01*
X15902618Y30655984D02*
X15963094Y30595508D01*
X15963094Y30595508D02*
X15902618Y30535032D01*
X15902618Y30535032D02*
X15842141Y30595508D01*
X15842141Y30595508D02*
X15902618Y30655984D01*
X15902618Y30655984D02*
X15902618Y30535032D01*
X15297856Y29385984D02*
X15297856Y30232651D01*
X15297856Y30111699D02*
X15237379Y30172175D01*
X15237379Y30172175D02*
X15116427Y30232651D01*
X15116427Y30232651D02*
X14934998Y30232651D01*
X14934998Y30232651D02*
X14814046Y30172175D01*
X14814046Y30172175D02*
X14753570Y30051222D01*
X14753570Y30051222D02*
X14753570Y29385984D01*
X14753570Y30051222D02*
X14693094Y30172175D01*
X14693094Y30172175D02*
X14572141Y30232651D01*
X14572141Y30232651D02*
X14390713Y30232651D01*
X14390713Y30232651D02*
X14269760Y30172175D01*
X14269760Y30172175D02*
X14209284Y30051222D01*
X14209284Y30051222D02*
X14209284Y29385984D01*
X13120713Y29446460D02*
X13241665Y29385984D01*
X13241665Y29385984D02*
X13483570Y29385984D01*
X13483570Y29385984D02*
X13604523Y29446460D01*
X13604523Y29446460D02*
X13664999Y29567413D01*
X13664999Y29567413D02*
X13664999Y30051222D01*
X13664999Y30051222D02*
X13604523Y30172175D01*
X13604523Y30172175D02*
X13483570Y30232651D01*
X13483570Y30232651D02*
X13241665Y30232651D01*
X13241665Y30232651D02*
X13120713Y30172175D01*
X13120713Y30172175D02*
X13060237Y30051222D01*
X13060237Y30051222D02*
X13060237Y29930270D01*
X13060237Y29930270D02*
X13664999Y29809318D01*
X12636904Y29385984D02*
X11971666Y30232651D01*
X12636904Y30232651D02*
X11971666Y29385984D01*
X11487857Y29506937D02*
X11427380Y29446460D01*
X11427380Y29446460D02*
X11487857Y29385984D01*
X11487857Y29385984D02*
X11548333Y29446460D01*
X11548333Y29446460D02*
X11487857Y29506937D01*
X11487857Y29506937D02*
X11487857Y29385984D01*
X10338809Y29446460D02*
X10459761Y29385984D01*
X10459761Y29385984D02*
X10701666Y29385984D01*
X10701666Y29385984D02*
X10822618Y29446460D01*
X10822618Y29446460D02*
X10883095Y29506937D01*
X10883095Y29506937D02*
X10943571Y29627889D01*
X10943571Y29627889D02*
X10943571Y29990746D01*
X10943571Y29990746D02*
X10883095Y30111699D01*
X10883095Y30111699D02*
X10822618Y30172175D01*
X10822618Y30172175D02*
X10701666Y30232651D01*
X10701666Y30232651D02*
X10459761Y30232651D01*
X10459761Y30232651D02*
X10338809Y30172175D01*
X9613095Y29385984D02*
X9734047Y29446460D01*
X9734047Y29446460D02*
X9794524Y29506937D01*
X9794524Y29506937D02*
X9855000Y29627889D01*
X9855000Y29627889D02*
X9855000Y29990746D01*
X9855000Y29990746D02*
X9794524Y30111699D01*
X9794524Y30111699D02*
X9734047Y30172175D01*
X9734047Y30172175D02*
X9613095Y30232651D01*
X9613095Y30232651D02*
X9431666Y30232651D01*
X9431666Y30232651D02*
X9310714Y30172175D01*
X9310714Y30172175D02*
X9250238Y30111699D01*
X9250238Y30111699D02*
X9189762Y29990746D01*
X9189762Y29990746D02*
X9189762Y29627889D01*
X9189762Y29627889D02*
X9250238Y29506937D01*
X9250238Y29506937D02*
X9310714Y29446460D01*
X9310714Y29446460D02*
X9431666Y29385984D01*
X9431666Y29385984D02*
X9613095Y29385984D01*
X8645476Y29385984D02*
X8645476Y30232651D01*
X8645476Y30111699D02*
X8584999Y30172175D01*
X8584999Y30172175D02*
X8464047Y30232651D01*
X8464047Y30232651D02*
X8282618Y30232651D01*
X8282618Y30232651D02*
X8161666Y30172175D01*
X8161666Y30172175D02*
X8101190Y30051222D01*
X8101190Y30051222D02*
X8101190Y29385984D01*
X8101190Y30051222D02*
X8040714Y30172175D01*
X8040714Y30172175D02*
X7919761Y30232651D01*
X7919761Y30232651D02*
X7738333Y30232651D01*
X7738333Y30232651D02*
X7617380Y30172175D01*
X7617380Y30172175D02*
X7556904Y30051222D01*
X7556904Y30051222D02*
X7556904Y29385984D01*
X22857380Y24559984D02*
X23280714Y25164746D01*
X23583095Y24559984D02*
X23583095Y25829984D01*
X23583095Y25829984D02*
X23099285Y25829984D01*
X23099285Y25829984D02*
X22978333Y25769508D01*
X22978333Y25769508D02*
X22917856Y25709032D01*
X22917856Y25709032D02*
X22857380Y25588080D01*
X22857380Y25588080D02*
X22857380Y25406651D01*
X22857380Y25406651D02*
X22917856Y25285699D01*
X22917856Y25285699D02*
X22978333Y25225222D01*
X22978333Y25225222D02*
X23099285Y25164746D01*
X23099285Y25164746D02*
X23583095Y25164746D01*
X21829285Y24620460D02*
X21950237Y24559984D01*
X21950237Y24559984D02*
X22192142Y24559984D01*
X22192142Y24559984D02*
X22313095Y24620460D01*
X22313095Y24620460D02*
X22373571Y24741413D01*
X22373571Y24741413D02*
X22373571Y25225222D01*
X22373571Y25225222D02*
X22313095Y25346175D01*
X22313095Y25346175D02*
X22192142Y25406651D01*
X22192142Y25406651D02*
X21950237Y25406651D01*
X21950237Y25406651D02*
X21829285Y25346175D01*
X21829285Y25346175D02*
X21768809Y25225222D01*
X21768809Y25225222D02*
X21768809Y25104270D01*
X21768809Y25104270D02*
X22373571Y24983318D01*
X21345476Y25406651D02*
X21043095Y24559984D01*
X21043095Y24559984D02*
X20740714Y25406651D01*
X20256905Y24680937D02*
X20196428Y24620460D01*
X20196428Y24620460D02*
X20256905Y24559984D01*
X20256905Y24559984D02*
X20317381Y24620460D01*
X20317381Y24620460D02*
X20256905Y24680937D01*
X20256905Y24680937D02*
X20256905Y24559984D01*
X19228809Y25225222D02*
X19047381Y25164746D01*
X19047381Y25164746D02*
X18986904Y25104270D01*
X18986904Y25104270D02*
X18926428Y24983318D01*
X18926428Y24983318D02*
X18926428Y24801889D01*
X18926428Y24801889D02*
X18986904Y24680937D01*
X18986904Y24680937D02*
X19047381Y24620460D01*
X19047381Y24620460D02*
X19168333Y24559984D01*
X19168333Y24559984D02*
X19652143Y24559984D01*
X19652143Y24559984D02*
X19652143Y25829984D01*
X19652143Y25829984D02*
X19228809Y25829984D01*
X19228809Y25829984D02*
X19107857Y25769508D01*
X19107857Y25769508D02*
X19047381Y25709032D01*
X19047381Y25709032D02*
X18986904Y25588080D01*
X18986904Y25588080D02*
X18986904Y25467127D01*
X18986904Y25467127D02*
X19047381Y25346175D01*
X19047381Y25346175D02*
X19107857Y25285699D01*
X19107857Y25285699D02*
X19228809Y25225222D01*
X19228809Y25225222D02*
X19652143Y25225222D01*
X15733285Y24076175D02*
X15793762Y24136651D01*
X15793762Y24136651D02*
X15914714Y24318080D01*
X15914714Y24318080D02*
X15975190Y24439032D01*
X15975190Y24439032D02*
X16035666Y24620460D01*
X16035666Y24620460D02*
X16096143Y24922841D01*
X16096143Y24922841D02*
X16096143Y25164746D01*
X16096143Y25164746D02*
X16035666Y25467127D01*
X16035666Y25467127D02*
X15975190Y25648556D01*
X15975190Y25648556D02*
X15914714Y25769508D01*
X15914714Y25769508D02*
X15793762Y25950937D01*
X15793762Y25950937D02*
X15733285Y26011413D01*
X14523761Y24680937D02*
X14584237Y24620460D01*
X14584237Y24620460D02*
X14765666Y24559984D01*
X14765666Y24559984D02*
X14886618Y24559984D01*
X14886618Y24559984D02*
X15068047Y24620460D01*
X15068047Y24620460D02*
X15188999Y24741413D01*
X15188999Y24741413D02*
X15249476Y24862365D01*
X15249476Y24862365D02*
X15309952Y25104270D01*
X15309952Y25104270D02*
X15309952Y25285699D01*
X15309952Y25285699D02*
X15249476Y25527603D01*
X15249476Y25527603D02*
X15188999Y25648556D01*
X15188999Y25648556D02*
X15068047Y25769508D01*
X15068047Y25769508D02*
X14886618Y25829984D01*
X14886618Y25829984D02*
X14765666Y25829984D01*
X14765666Y25829984D02*
X14584237Y25769508D01*
X14584237Y25769508D02*
X14523761Y25709032D01*
X14100428Y24076175D02*
X14039952Y24136651D01*
X14039952Y24136651D02*
X13918999Y24318080D01*
X13918999Y24318080D02*
X13858523Y24439032D01*
X13858523Y24439032D02*
X13798047Y24620460D01*
X13798047Y24620460D02*
X13737571Y24922841D01*
X13737571Y24922841D02*
X13737571Y25164746D01*
X13737571Y25164746D02*
X13798047Y25467127D01*
X13798047Y25467127D02*
X13858523Y25648556D01*
X13858523Y25648556D02*
X13918999Y25769508D01*
X13918999Y25769508D02*
X14039952Y25950937D01*
X14039952Y25950937D02*
X14100428Y26011413D01*
X12225666Y25709032D02*
X12165190Y25769508D01*
X12165190Y25769508D02*
X12044237Y25829984D01*
X12044237Y25829984D02*
X11741856Y25829984D01*
X11741856Y25829984D02*
X11620904Y25769508D01*
X11620904Y25769508D02*
X11560428Y25709032D01*
X11560428Y25709032D02*
X11499951Y25588080D01*
X11499951Y25588080D02*
X11499951Y25467127D01*
X11499951Y25467127D02*
X11560428Y25285699D01*
X11560428Y25285699D02*
X12286142Y24559984D01*
X12286142Y24559984D02*
X11499951Y24559984D01*
X10713761Y25829984D02*
X10592808Y25829984D01*
X10592808Y25829984D02*
X10471856Y25769508D01*
X10471856Y25769508D02*
X10411380Y25709032D01*
X10411380Y25709032D02*
X10350904Y25588080D01*
X10350904Y25588080D02*
X10290427Y25346175D01*
X10290427Y25346175D02*
X10290427Y25043794D01*
X10290427Y25043794D02*
X10350904Y24801889D01*
X10350904Y24801889D02*
X10411380Y24680937D01*
X10411380Y24680937D02*
X10471856Y24620460D01*
X10471856Y24620460D02*
X10592808Y24559984D01*
X10592808Y24559984D02*
X10713761Y24559984D01*
X10713761Y24559984D02*
X10834713Y24620460D01*
X10834713Y24620460D02*
X10895189Y24680937D01*
X10895189Y24680937D02*
X10955666Y24801889D01*
X10955666Y24801889D02*
X11016142Y25043794D01*
X11016142Y25043794D02*
X11016142Y25346175D01*
X11016142Y25346175D02*
X10955666Y25588080D01*
X10955666Y25588080D02*
X10895189Y25709032D01*
X10895189Y25709032D02*
X10834713Y25769508D01*
X10834713Y25769508D02*
X10713761Y25829984D01*
X9806618Y25709032D02*
X9746142Y25769508D01*
X9746142Y25769508D02*
X9625189Y25829984D01*
X9625189Y25829984D02*
X9322808Y25829984D01*
X9322808Y25829984D02*
X9201856Y25769508D01*
X9201856Y25769508D02*
X9141380Y25709032D01*
X9141380Y25709032D02*
X9080903Y25588080D01*
X9080903Y25588080D02*
X9080903Y25467127D01*
X9080903Y25467127D02*
X9141380Y25285699D01*
X9141380Y25285699D02*
X9867094Y24559984D01*
X9867094Y24559984D02*
X9080903Y24559984D01*
X7992332Y25406651D02*
X7992332Y24559984D01*
X8294713Y25890460D02*
X8597094Y24983318D01*
X8597094Y24983318D02*
X7810903Y24983318D01*
D12*
X28584475Y17955324D02*
X29007809Y18560086D01*
X29310190Y17955324D02*
X29310190Y19225324D01*
X29310190Y19225324D02*
X28826380Y19225324D01*
X28826380Y19225324D02*
X28705428Y19164848D01*
X28705428Y19164848D02*
X28644951Y19104372D01*
X28644951Y19104372D02*
X28584475Y18983420D01*
X28584475Y18983420D02*
X28584475Y18801991D01*
X28584475Y18801991D02*
X28644951Y18681039D01*
X28644951Y18681039D02*
X28705428Y18620562D01*
X28705428Y18620562D02*
X28826380Y18560086D01*
X28826380Y18560086D02*
X29310190Y18560086D01*
X28221618Y19225324D02*
X27495904Y19225324D01*
X27858761Y17955324D02*
X27858761Y19225324D01*
X27133047Y18015800D02*
X26951618Y17955324D01*
X26951618Y17955324D02*
X26649237Y17955324D01*
X26649237Y17955324D02*
X26528285Y18015800D01*
X26528285Y18015800D02*
X26467809Y18076277D01*
X26467809Y18076277D02*
X26407332Y18197229D01*
X26407332Y18197229D02*
X26407332Y18318181D01*
X26407332Y18318181D02*
X26467809Y18439134D01*
X26467809Y18439134D02*
X26528285Y18499610D01*
X26528285Y18499610D02*
X26649237Y18560086D01*
X26649237Y18560086D02*
X26891142Y18620562D01*
X26891142Y18620562D02*
X27012094Y18681039D01*
X27012094Y18681039D02*
X27072571Y18741515D01*
X27072571Y18741515D02*
X27133047Y18862467D01*
X27133047Y18862467D02*
X27133047Y18983420D01*
X27133047Y18983420D02*
X27072571Y19104372D01*
X27072571Y19104372D02*
X27012094Y19164848D01*
X27012094Y19164848D02*
X26891142Y19225324D01*
X26891142Y19225324D02*
X26588761Y19225324D01*
X26588761Y19225324D02*
X26407332Y19164848D01*
X28669142Y24940324D02*
X29394857Y24940324D01*
X29032000Y24940324D02*
X29032000Y26210324D01*
X29032000Y26210324D02*
X29152952Y26028896D01*
X29152952Y26028896D02*
X29273904Y25907943D01*
X29273904Y25907943D02*
X29394857Y25847467D01*
X29455333Y6779324D02*
X28608666Y6779324D01*
X28608666Y6779324D02*
X29152952Y5509324D01*
X28608666Y10208324D02*
X29032000Y10813086D01*
X29334381Y10208324D02*
X29334381Y11478324D01*
X29334381Y11478324D02*
X28850571Y11478324D01*
X28850571Y11478324D02*
X28729619Y11417848D01*
X28729619Y11417848D02*
X28669142Y11357372D01*
X28669142Y11357372D02*
X28608666Y11236420D01*
X28608666Y11236420D02*
X28608666Y11054991D01*
X28608666Y11054991D02*
X28669142Y10934039D01*
X28669142Y10934039D02*
X28729619Y10873562D01*
X28729619Y10873562D02*
X28850571Y10813086D01*
X28850571Y10813086D02*
X29334381Y10813086D01*
X28185333Y11478324D02*
X27338666Y10208324D01*
X27338666Y11478324D02*
X28185333Y10208324D01*
X29364618Y14145324D02*
X28638904Y14145324D01*
X29001761Y12875324D02*
X29001761Y14145324D01*
X28336523Y14145324D02*
X27489856Y12875324D01*
X27489856Y14145324D02*
X28336523Y12875324D01*
X28584475Y20616277D02*
X28644951Y20555800D01*
X28644951Y20555800D02*
X28826380Y20495324D01*
X28826380Y20495324D02*
X28947332Y20495324D01*
X28947332Y20495324D02*
X29128761Y20555800D01*
X29128761Y20555800D02*
X29249713Y20676753D01*
X29249713Y20676753D02*
X29310190Y20797705D01*
X29310190Y20797705D02*
X29370666Y21039610D01*
X29370666Y21039610D02*
X29370666Y21221039D01*
X29370666Y21221039D02*
X29310190Y21462943D01*
X29310190Y21462943D02*
X29249713Y21583896D01*
X29249713Y21583896D02*
X29128761Y21704848D01*
X29128761Y21704848D02*
X28947332Y21765324D01*
X28947332Y21765324D02*
X28826380Y21765324D01*
X28826380Y21765324D02*
X28644951Y21704848D01*
X28644951Y21704848D02*
X28584475Y21644372D01*
X28221618Y21765324D02*
X27495904Y21765324D01*
X27858761Y20495324D02*
X27858761Y21765324D01*
X27133047Y20555800D02*
X26951618Y20495324D01*
X26951618Y20495324D02*
X26649237Y20495324D01*
X26649237Y20495324D02*
X26528285Y20555800D01*
X26528285Y20555800D02*
X26467809Y20616277D01*
X26467809Y20616277D02*
X26407332Y20737229D01*
X26407332Y20737229D02*
X26407332Y20858181D01*
X26407332Y20858181D02*
X26467809Y20979134D01*
X26467809Y20979134D02*
X26528285Y21039610D01*
X26528285Y21039610D02*
X26649237Y21100086D01*
X26649237Y21100086D02*
X26891142Y21160562D01*
X26891142Y21160562D02*
X27012094Y21221039D01*
X27012094Y21221039D02*
X27072571Y21281515D01*
X27072571Y21281515D02*
X27133047Y21402467D01*
X27133047Y21402467D02*
X27133047Y21523420D01*
X27133047Y21523420D02*
X27072571Y21644372D01*
X27072571Y21644372D02*
X27012094Y21704848D01*
X27012094Y21704848D02*
X26891142Y21765324D01*
X26891142Y21765324D02*
X26588761Y21765324D01*
X26588761Y21765324D02*
X26407332Y21704848D01*
X28729618Y9004848D02*
X28850571Y9065324D01*
X28850571Y9065324D02*
X29031999Y9065324D01*
X29031999Y9065324D02*
X29213428Y9004848D01*
X29213428Y9004848D02*
X29334380Y8883896D01*
X29334380Y8883896D02*
X29394857Y8762943D01*
X29394857Y8762943D02*
X29455333Y8521039D01*
X29455333Y8521039D02*
X29455333Y8339610D01*
X29455333Y8339610D02*
X29394857Y8097705D01*
X29394857Y8097705D02*
X29334380Y7976753D01*
X29334380Y7976753D02*
X29213428Y7855800D01*
X29213428Y7855800D02*
X29031999Y7795324D01*
X29031999Y7795324D02*
X28911047Y7795324D01*
X28911047Y7795324D02*
X28729618Y7855800D01*
X28729618Y7855800D02*
X28669142Y7916277D01*
X28669142Y7916277D02*
X28669142Y8339610D01*
X28669142Y8339610D02*
X28911047Y8339610D01*
X28124857Y7795324D02*
X28124857Y9065324D01*
X28124857Y9065324D02*
X27399142Y7795324D01*
X27399142Y7795324D02*
X27399142Y9065324D01*
X26794381Y7795324D02*
X26794381Y9065324D01*
X26794381Y9065324D02*
X26492000Y9065324D01*
X26492000Y9065324D02*
X26310571Y9004848D01*
X26310571Y9004848D02*
X26189619Y8883896D01*
X26189619Y8883896D02*
X26129142Y8762943D01*
X26129142Y8762943D02*
X26068666Y8521039D01*
X26068666Y8521039D02*
X26068666Y8339610D01*
X26068666Y8339610D02*
X26129142Y8097705D01*
X26129142Y8097705D02*
X26189619Y7976753D01*
X26189619Y7976753D02*
X26310571Y7855800D01*
X26310571Y7855800D02*
X26492000Y7795324D01*
X26492000Y7795324D02*
X26794381Y7795324D01*
X29431142Y16558324D02*
X29007809Y15288324D01*
X29007809Y15288324D02*
X28584475Y16558324D01*
X27435428Y15288324D02*
X27858762Y15893086D01*
X28161143Y15288324D02*
X28161143Y16558324D01*
X28161143Y16558324D02*
X27677333Y16558324D01*
X27677333Y16558324D02*
X27556381Y16497848D01*
X27556381Y16497848D02*
X27495904Y16437372D01*
X27495904Y16437372D02*
X27435428Y16316420D01*
X27435428Y16316420D02*
X27435428Y16134991D01*
X27435428Y16134991D02*
X27495904Y16014039D01*
X27495904Y16014039D02*
X27556381Y15953562D01*
X27556381Y15953562D02*
X27677333Y15893086D01*
X27677333Y15893086D02*
X28161143Y15893086D01*
X26891143Y15953562D02*
X26467809Y15953562D01*
X26286381Y15288324D02*
X26891143Y15288324D01*
X26891143Y15288324D02*
X26891143Y16558324D01*
X26891143Y16558324D02*
X26286381Y16558324D01*
X25318761Y15953562D02*
X25742095Y15953562D01*
X25742095Y15288324D02*
X25742095Y16558324D01*
X25742095Y16558324D02*
X25137333Y16558324D01*
X29394857Y23519134D02*
X28427238Y23519134D01*
X28911047Y23035324D02*
X28911047Y24002943D01*
X27217714Y24305324D02*
X27822476Y24305324D01*
X27822476Y24305324D02*
X27882952Y23700562D01*
X27882952Y23700562D02*
X27822476Y23761039D01*
X27822476Y23761039D02*
X27701523Y23821515D01*
X27701523Y23821515D02*
X27399142Y23821515D01*
X27399142Y23821515D02*
X27278190Y23761039D01*
X27278190Y23761039D02*
X27217714Y23700562D01*
X27217714Y23700562D02*
X27157237Y23579610D01*
X27157237Y23579610D02*
X27157237Y23277229D01*
X27157237Y23277229D02*
X27217714Y23156277D01*
X27217714Y23156277D02*
X27278190Y23095800D01*
X27278190Y23095800D02*
X27399142Y23035324D01*
X27399142Y23035324D02*
X27701523Y23035324D01*
X27701523Y23035324D02*
X27822476Y23095800D01*
X27822476Y23095800D02*
X27882952Y23156277D01*
X26794380Y24305324D02*
X26371047Y23035324D01*
X26371047Y23035324D02*
X25947713Y24305324D01*
D13*
X16579297Y647568D02*
X16684059Y699948D01*
X16684059Y699948D02*
X16736440Y752329D01*
X16736440Y752329D02*
X16788821Y857091D01*
X16788821Y857091D02*
X16788821Y1171377D01*
X16788821Y1171377D02*
X16736440Y1276139D01*
X16736440Y1276139D02*
X16684059Y1328520D01*
X16684059Y1328520D02*
X16579297Y1380901D01*
X16579297Y1380901D02*
X16422154Y1380901D01*
X16422154Y1380901D02*
X16317392Y1328520D01*
X16317392Y1328520D02*
X16265011Y1276139D01*
X16265011Y1276139D02*
X16212630Y1171377D01*
X16212630Y1171377D02*
X16212630Y857091D01*
X16212630Y857091D02*
X16265011Y752329D01*
X16265011Y752329D02*
X16317392Y699948D01*
X16317392Y699948D02*
X16422154Y647568D01*
X16422154Y647568D02*
X16579297Y647568D01*
X15741202Y1380901D02*
X15741202Y280901D01*
X15741202Y1328520D02*
X15636440Y1380901D01*
X15636440Y1380901D02*
X15426916Y1380901D01*
X15426916Y1380901D02*
X15322154Y1328520D01*
X15322154Y1328520D02*
X15269773Y1276139D01*
X15269773Y1276139D02*
X15217392Y1171377D01*
X15217392Y1171377D02*
X15217392Y857091D01*
X15217392Y857091D02*
X15269773Y752329D01*
X15269773Y752329D02*
X15322154Y699948D01*
X15322154Y699948D02*
X15426916Y647568D01*
X15426916Y647568D02*
X15636440Y647568D01*
X15636440Y647568D02*
X15741202Y699948D01*
X14326916Y699948D02*
X14431678Y647568D01*
X14431678Y647568D02*
X14641202Y647568D01*
X14641202Y647568D02*
X14745964Y699948D01*
X14745964Y699948D02*
X14798345Y804710D01*
X14798345Y804710D02*
X14798345Y1223758D01*
X14798345Y1223758D02*
X14745964Y1328520D01*
X14745964Y1328520D02*
X14641202Y1380901D01*
X14641202Y1380901D02*
X14431678Y1380901D01*
X14431678Y1380901D02*
X14326916Y1328520D01*
X14326916Y1328520D02*
X14274535Y1223758D01*
X14274535Y1223758D02*
X14274535Y1118996D01*
X14274535Y1118996D02*
X14798345Y1014234D01*
X13803107Y1380901D02*
X13803107Y647568D01*
X13803107Y1276139D02*
X13750726Y1328520D01*
X13750726Y1328520D02*
X13645964Y1380901D01*
X13645964Y1380901D02*
X13488821Y1380901D01*
X13488821Y1380901D02*
X13384059Y1328520D01*
X13384059Y1328520D02*
X13331678Y1223758D01*
X13331678Y1223758D02*
X13331678Y647568D01*
D14*
X12263797Y598541D02*
X12263797Y1598541D01*
X11835226Y598541D02*
X11835226Y1122351D01*
X11835226Y1122351D02*
X11882845Y1217589D01*
X11882845Y1217589D02*
X11978083Y1265208D01*
X11978083Y1265208D02*
X12120940Y1265208D01*
X12120940Y1265208D02*
X12216178Y1217589D01*
X12216178Y1217589D02*
X12263797Y1169970D01*
X10930464Y598541D02*
X10930464Y1122351D01*
X10930464Y1122351D02*
X10978083Y1217589D01*
X10978083Y1217589D02*
X11073321Y1265208D01*
X11073321Y1265208D02*
X11263797Y1265208D01*
X11263797Y1265208D02*
X11359035Y1217589D01*
X10930464Y646160D02*
X11025702Y598541D01*
X11025702Y598541D02*
X11263797Y598541D01*
X11263797Y598541D02*
X11359035Y646160D01*
X11359035Y646160D02*
X11406654Y741399D01*
X11406654Y741399D02*
X11406654Y836637D01*
X11406654Y836637D02*
X11359035Y931875D01*
X11359035Y931875D02*
X11263797Y979494D01*
X11263797Y979494D02*
X11025702Y979494D01*
X11025702Y979494D02*
X10930464Y1027113D01*
X10454273Y598541D02*
X10454273Y1265208D01*
X10454273Y1074732D02*
X10406654Y1169970D01*
X10406654Y1169970D02*
X10359035Y1217589D01*
X10359035Y1217589D02*
X10263797Y1265208D01*
X10263797Y1265208D02*
X10168559Y1265208D01*
X9406654Y598541D02*
X9406654Y1598541D01*
X9406654Y646160D02*
X9501892Y598541D01*
X9501892Y598541D02*
X9692368Y598541D01*
X9692368Y598541D02*
X9787606Y646160D01*
X9787606Y646160D02*
X9835225Y693780D01*
X9835225Y693780D02*
X9882844Y789018D01*
X9882844Y789018D02*
X9882844Y1074732D01*
X9882844Y1074732D02*
X9835225Y1169970D01*
X9835225Y1169970D02*
X9787606Y1217589D01*
X9787606Y1217589D02*
X9692368Y1265208D01*
X9692368Y1265208D02*
X9501892Y1265208D01*
X9501892Y1265208D02*
X9406654Y1217589D01*
X9025701Y1265208D02*
X8835225Y598541D01*
X8835225Y598541D02*
X8644749Y1074732D01*
X8644749Y1074732D02*
X8454273Y598541D01*
X8454273Y598541D02*
X8263797Y1265208D01*
X7454273Y598541D02*
X7454273Y1122351D01*
X7454273Y1122351D02*
X7501892Y1217589D01*
X7501892Y1217589D02*
X7597130Y1265208D01*
X7597130Y1265208D02*
X7787606Y1265208D01*
X7787606Y1265208D02*
X7882844Y1217589D01*
X7454273Y646160D02*
X7549511Y598541D01*
X7549511Y598541D02*
X7787606Y598541D01*
X7787606Y598541D02*
X7882844Y646160D01*
X7882844Y646160D02*
X7930463Y741399D01*
X7930463Y741399D02*
X7930463Y836637D01*
X7930463Y836637D02*
X7882844Y931875D01*
X7882844Y931875D02*
X7787606Y979494D01*
X7787606Y979494D02*
X7549511Y979494D01*
X7549511Y979494D02*
X7454273Y1027113D01*
X6978082Y598541D02*
X6978082Y1265208D01*
X6978082Y1074732D02*
X6930463Y1169970D01*
X6930463Y1169970D02*
X6882844Y1217589D01*
X6882844Y1217589D02*
X6787606Y1265208D01*
X6787606Y1265208D02*
X6692368Y1265208D01*
X5978082Y646160D02*
X6073320Y598541D01*
X6073320Y598541D02*
X6263796Y598541D01*
X6263796Y598541D02*
X6359034Y646160D01*
X6359034Y646160D02*
X6406653Y741399D01*
X6406653Y741399D02*
X6406653Y1122351D01*
X6406653Y1122351D02*
X6359034Y1217589D01*
X6359034Y1217589D02*
X6263796Y1265208D01*
X6263796Y1265208D02*
X6073320Y1265208D01*
X6073320Y1265208D02*
X5978082Y1217589D01*
X5978082Y1217589D02*
X5930463Y1122351D01*
X5930463Y1122351D02*
X5930463Y1027113D01*
X5930463Y1027113D02*
X6406653Y931875D01*
D13*
X4439268Y8208435D02*
X4439268Y9908435D01*
X4439268Y9908435D02*
X3867839Y9908435D01*
X3867839Y9908435D02*
X3724982Y9827483D01*
X3724982Y9827483D02*
X3653553Y9746530D01*
X3653553Y9746530D02*
X3582125Y9584626D01*
X3582125Y9584626D02*
X3582125Y9341768D01*
X3582125Y9341768D02*
X3653553Y9179864D01*
X3653553Y9179864D02*
X3724982Y9098911D01*
X3724982Y9098911D02*
X3867839Y9017959D01*
X3867839Y9017959D02*
X4439268Y9017959D01*
X2939268Y8208435D02*
X2939268Y9908435D01*
X2939268Y9260816D02*
X2796411Y9341768D01*
X2796411Y9341768D02*
X2510696Y9341768D01*
X2510696Y9341768D02*
X2367839Y9260816D01*
X2367839Y9260816D02*
X2296411Y9179864D01*
X2296411Y9179864D02*
X2224982Y9017959D01*
X2224982Y9017959D02*
X2224982Y8532245D01*
X2224982Y8532245D02*
X2296411Y8370340D01*
X2296411Y8370340D02*
X2367839Y8289387D01*
X2367839Y8289387D02*
X2510696Y8208435D01*
X2510696Y8208435D02*
X2796411Y8208435D01*
X2796411Y8208435D02*
X2939268Y8289387D01*
D15*
X22549634Y13797442D02*
X23216301Y14749823D01*
X23692491Y13797442D02*
X23692491Y15797442D01*
X23692491Y15797442D02*
X22930586Y15797442D01*
X22930586Y15797442D02*
X22740110Y15702204D01*
X22740110Y15702204D02*
X22644872Y15606966D01*
X22644872Y15606966D02*
X22549634Y15416490D01*
X22549634Y15416490D02*
X22549634Y15130776D01*
X22549634Y15130776D02*
X22644872Y14940300D01*
X22644872Y14940300D02*
X22740110Y14845061D01*
X22740110Y14845061D02*
X22930586Y14749823D01*
X22930586Y14749823D02*
X23692491Y14749823D01*
X21406777Y13797442D02*
X21597253Y13892680D01*
X21597253Y13892680D02*
X21692491Y13987919D01*
X21692491Y13987919D02*
X21787729Y14178395D01*
X21787729Y14178395D02*
X21787729Y14749823D01*
X21787729Y14749823D02*
X21692491Y14940300D01*
X21692491Y14940300D02*
X21597253Y15035538D01*
X21597253Y15035538D02*
X21406777Y15130776D01*
X21406777Y15130776D02*
X21121062Y15130776D01*
X21121062Y15130776D02*
X20930586Y15035538D01*
X20930586Y15035538D02*
X20835348Y14940300D01*
X20835348Y14940300D02*
X20740110Y14749823D01*
X20740110Y14749823D02*
X20740110Y14178395D01*
X20740110Y14178395D02*
X20835348Y13987919D01*
X20835348Y13987919D02*
X20930586Y13892680D01*
X20930586Y13892680D02*
X21121062Y13797442D01*
X21121062Y13797442D02*
X21406777Y13797442D01*
X19882967Y13797442D02*
X19882967Y15797442D01*
X19882967Y14845061D02*
X18740110Y14845061D01*
X18740110Y13797442D02*
X18740110Y15797442D01*
X17882967Y13892680D02*
X17597253Y13797442D01*
X17597253Y13797442D02*
X17121062Y13797442D01*
X17121062Y13797442D02*
X16930586Y13892680D01*
X16930586Y13892680D02*
X16835348Y13987919D01*
X16835348Y13987919D02*
X16740110Y14178395D01*
X16740110Y14178395D02*
X16740110Y14368871D01*
X16740110Y14368871D02*
X16835348Y14559347D01*
X16835348Y14559347D02*
X16930586Y14654585D01*
X16930586Y14654585D02*
X17121062Y14749823D01*
X17121062Y14749823D02*
X17502015Y14845061D01*
X17502015Y14845061D02*
X17692491Y14940300D01*
X17692491Y14940300D02*
X17787729Y15035538D01*
X17787729Y15035538D02*
X17882967Y15226014D01*
X17882967Y15226014D02*
X17882967Y15416490D01*
X17882967Y15416490D02*
X17787729Y15606966D01*
X17787729Y15606966D02*
X17692491Y15702204D01*
X17692491Y15702204D02*
X17502015Y15797442D01*
X17502015Y15797442D02*
X17025824Y15797442D01*
X17025824Y15797442D02*
X16740110Y15702204D01*
D16*
X23128193Y10856196D02*
X23212860Y10771529D01*
X23212860Y10771529D02*
X23466860Y10686863D01*
X23466860Y10686863D02*
X23636193Y10686863D01*
X23636193Y10686863D02*
X23890193Y10771529D01*
X23890193Y10771529D02*
X24059527Y10940863D01*
X24059527Y10940863D02*
X24144193Y11110196D01*
X24144193Y11110196D02*
X24228860Y11448863D01*
X24228860Y11448863D02*
X24228860Y11702863D01*
X24228860Y11702863D02*
X24144193Y12041529D01*
X24144193Y12041529D02*
X24059527Y12210863D01*
X24059527Y12210863D02*
X23890193Y12380196D01*
X23890193Y12380196D02*
X23636193Y12464863D01*
X23636193Y12464863D02*
X23466860Y12464863D01*
X23466860Y12464863D02*
X23212860Y12380196D01*
X23212860Y12380196D02*
X23128193Y12295529D01*
X22112193Y10686863D02*
X22281527Y10771529D01*
X22281527Y10771529D02*
X22366193Y10856196D01*
X22366193Y10856196D02*
X22450860Y11025529D01*
X22450860Y11025529D02*
X22450860Y11533529D01*
X22450860Y11533529D02*
X22366193Y11702863D01*
X22366193Y11702863D02*
X22281527Y11787529D01*
X22281527Y11787529D02*
X22112193Y11872196D01*
X22112193Y11872196D02*
X21858193Y11872196D01*
X21858193Y11872196D02*
X21688860Y11787529D01*
X21688860Y11787529D02*
X21604193Y11702863D01*
X21604193Y11702863D02*
X21519527Y11533529D01*
X21519527Y11533529D02*
X21519527Y11025529D01*
X21519527Y11025529D02*
X21604193Y10856196D01*
X21604193Y10856196D02*
X21688860Y10771529D01*
X21688860Y10771529D02*
X21858193Y10686863D01*
X21858193Y10686863D02*
X22112193Y10686863D01*
X20757526Y10686863D02*
X20757526Y11872196D01*
X20757526Y11702863D02*
X20672860Y11787529D01*
X20672860Y11787529D02*
X20503526Y11872196D01*
X20503526Y11872196D02*
X20249526Y11872196D01*
X20249526Y11872196D02*
X20080193Y11787529D01*
X20080193Y11787529D02*
X19995526Y11618196D01*
X19995526Y11618196D02*
X19995526Y10686863D01*
X19995526Y11618196D02*
X19910860Y11787529D01*
X19910860Y11787529D02*
X19741526Y11872196D01*
X19741526Y11872196D02*
X19487526Y11872196D01*
X19487526Y11872196D02*
X19318193Y11787529D01*
X19318193Y11787529D02*
X19233526Y11618196D01*
X19233526Y11618196D02*
X19233526Y10686863D01*
X18386859Y11872196D02*
X18386859Y10094196D01*
X18386859Y11787529D02*
X18217526Y11872196D01*
X18217526Y11872196D02*
X17878859Y11872196D01*
X17878859Y11872196D02*
X17709526Y11787529D01*
X17709526Y11787529D02*
X17624859Y11702863D01*
X17624859Y11702863D02*
X17540193Y11533529D01*
X17540193Y11533529D02*
X17540193Y11025529D01*
X17540193Y11025529D02*
X17624859Y10856196D01*
X17624859Y10856196D02*
X17709526Y10771529D01*
X17709526Y10771529D02*
X17878859Y10686863D01*
X17878859Y10686863D02*
X18217526Y10686863D01*
X18217526Y10686863D02*
X18386859Y10771529D01*
X16524192Y10686863D02*
X16693526Y10771529D01*
X16693526Y10771529D02*
X16778192Y10940863D01*
X16778192Y10940863D02*
X16778192Y12464863D01*
X15846859Y10686863D02*
X15846859Y11872196D01*
X15846859Y12464863D02*
X15931526Y12380196D01*
X15931526Y12380196D02*
X15846859Y12295529D01*
X15846859Y12295529D02*
X15762193Y12380196D01*
X15762193Y12380196D02*
X15846859Y12464863D01*
X15846859Y12464863D02*
X15846859Y12295529D01*
X14238192Y10686863D02*
X14238192Y11618196D01*
X14238192Y11618196D02*
X14322859Y11787529D01*
X14322859Y11787529D02*
X14492192Y11872196D01*
X14492192Y11872196D02*
X14830859Y11872196D01*
X14830859Y11872196D02*
X15000192Y11787529D01*
X14238192Y10771529D02*
X14407526Y10686863D01*
X14407526Y10686863D02*
X14830859Y10686863D01*
X14830859Y10686863D02*
X15000192Y10771529D01*
X15000192Y10771529D02*
X15084859Y10940863D01*
X15084859Y10940863D02*
X15084859Y11110196D01*
X15084859Y11110196D02*
X15000192Y11279529D01*
X15000192Y11279529D02*
X14830859Y11364196D01*
X14830859Y11364196D02*
X14407526Y11364196D01*
X14407526Y11364196D02*
X14238192Y11448863D01*
X13391525Y11872196D02*
X13391525Y10686863D01*
X13391525Y11702863D02*
X13306859Y11787529D01*
X13306859Y11787529D02*
X13137525Y11872196D01*
X13137525Y11872196D02*
X12883525Y11872196D01*
X12883525Y11872196D02*
X12714192Y11787529D01*
X12714192Y11787529D02*
X12629525Y11618196D01*
X12629525Y11618196D02*
X12629525Y10686863D01*
X12036858Y11872196D02*
X11359525Y11872196D01*
X11782858Y12464863D02*
X11782858Y10940863D01*
X11782858Y10940863D02*
X11698192Y10771529D01*
X11698192Y10771529D02*
X11528858Y10686863D01*
X11528858Y10686863D02*
X11359525Y10686863D01*
D17*
X9185735Y22857700D02*
G75*
G03*
X9185735Y22857700I-359435J0D01*
G01*
X9244666Y19466800D02*
G75*
G03*
X9244666Y19466800I-329466J0D01*
G01*
X12119659Y21117800D02*
G75*
G03*
X12119659Y21117800I-359659J0D01*
G01*
X15107729Y19555700D02*
G75*
G03*
X15107729Y19555700I-363229J0D01*
G01*
X16728318Y20838400D02*
G75*
G03*
X16728318Y20838400I-370918J0D01*
G01*
X18253759Y19568400D02*
G75*
G03*
X18253759Y19568400I-359659J0D01*
G01*
X19486818Y22768800D02*
G75*
G03*
X19486818Y22768800I-373518J0D01*
G01*
X19492324Y19543000D02*
G75*
G03*
X19492324Y19543000I-366324J0D01*
G01*
X24784747Y21321000D02*
G75*
G03*
X24784747Y21321000I-337447J0D01*
G01*
D18*
X9194600Y22502100D02*
X10058200Y21608400D01*
X9245400Y19822400D02*
X10083600Y20635200D01*
D15*
X10591600Y20736800D02*
X10058200Y20736800D01*
X10617000Y21511500D02*
X10058200Y21511500D01*
D19*
X11620300Y23022800D02*
X10363000Y21778200D01*
X11671100Y23022800D02*
X11620300Y23022800D01*
D18*
X11734600Y22692600D02*
X10642400Y21625800D01*
X11734600Y19517600D02*
X10591600Y20635200D01*
X12268000Y21117800D02*
X13487200Y21117800D01*
X12956500Y22692600D02*
X11734600Y22692600D01*
D19*
X13042700Y23022800D02*
X11671100Y23022800D01*
D18*
X13055400Y19517600D02*
X11734600Y19517600D01*
X13487200Y22210000D02*
X13004600Y22718000D01*
X13487200Y22184600D02*
X13487200Y19949400D01*
X13487200Y19949400D02*
X13055400Y19517600D01*
D19*
X14414300Y22984700D02*
X15709700Y22984700D01*
X14414300Y22972000D02*
X14414300Y22984700D01*
X14414300Y19962100D02*
X14414300Y22972000D01*
X14566700Y22908500D02*
X14465100Y22908500D01*
D18*
X14744500Y22679900D02*
X14744500Y20076400D01*
X15646200Y22667200D02*
X14757200Y22667200D01*
D19*
X15709700Y22984700D02*
X15735100Y22984700D01*
X15735100Y22984700D02*
X16357400Y22489400D01*
D18*
X16281200Y22159200D02*
X15646200Y22667200D01*
X16357400Y21371800D02*
X16357400Y22083000D01*
D19*
X16979700Y22984700D02*
X16395500Y22502100D01*
D18*
X17068600Y22667200D02*
X16459000Y22159200D01*
X17906800Y22667200D02*
X17068600Y22667200D01*
X17906800Y20076400D02*
X17906800Y22667200D01*
D19*
X18071900Y22921200D02*
X18148100Y22921200D01*
X18224300Y22984700D02*
X16979700Y22984700D01*
X18224300Y19987500D02*
X18224300Y22972000D01*
X18808500Y20330400D02*
X18808500Y22349700D01*
X18833900Y20330400D02*
X18808500Y20330400D01*
X18960900Y20393900D02*
X18872000Y20393900D01*
D18*
X19126000Y22235400D02*
X19126000Y20635200D01*
D19*
X19303800Y20393900D02*
X19367300Y20393900D01*
X19443500Y22349700D02*
X19443500Y20330400D01*
X19443500Y20330400D02*
X18833900Y20330400D01*
D18*
X19638800Y19517600D02*
X20624600Y19517600D01*
X20624600Y19517600D02*
X21081800Y19974800D01*
D19*
X20764300Y23035500D02*
X20764300Y20000200D01*
X20942100Y22959300D02*
X20827800Y22959300D01*
X21069100Y23035500D02*
X20764300Y23035500D01*
X21081800Y23035500D02*
X21361200Y23035500D01*
D18*
X21081800Y19962100D02*
X21081800Y22692600D01*
D19*
X21246900Y22946600D02*
X21310400Y22959300D01*
X21361200Y23035500D02*
X21373900Y23035500D01*
X21373900Y23035500D02*
X21386600Y23035500D01*
X21386600Y23035500D02*
X21386600Y19885900D01*
D18*
X22237500Y22083000D02*
X22237500Y20152600D01*
X22250200Y20114500D02*
X22809000Y19530300D01*
X22859800Y22692600D02*
X23863100Y22692600D01*
X22859800Y22679900D02*
X22224800Y22070300D01*
X23888500Y19504900D02*
X22847100Y19504900D01*
X24447300Y20063700D02*
X24447300Y20825700D01*
X24460000Y22095700D02*
X23952000Y22603700D01*
X24460000Y22044900D02*
X24460000Y21803600D01*
X24460000Y20076400D02*
X23875800Y19504900D01*
D13*
X23317000Y2144000D02*
X16205000Y2144000D01*
X21539000Y5636500D02*
X16205000Y2144000D01*
X21475500Y4620500D02*
X21475500Y3541000D01*
X21094500Y3414000D02*
X21158000Y3414000D01*
X21094500Y3414000D02*
X21094500Y4430000D01*
X21031000Y3223500D02*
X21031000Y3350500D01*
X20523000Y3223500D02*
X20370600Y3223500D01*
X19761000Y9256000D02*
X23317000Y2144000D01*
X19164100Y5700000D02*
X17983000Y5700000D01*
X17983000Y5700000D02*
X19761000Y9256000D01*
X17538500Y4811000D02*
X17983000Y5700000D01*
X17538500Y4811000D02*
X17856000Y4811000D01*
X16205000Y2144000D02*
X17538500Y4811000D01*
X21094500Y3160000D02*
G75*
G03*
X21475500Y3541000I0J381000D01*
G01*
X21475485Y4620500D02*
G75*
G03*
X21286048Y4936424I-357985J100D01*
G01*
X20967500Y5255500D02*
G75*
G03*
X21283549Y4937858I794860J474820D01*
G01*
X21285000Y3287000D02*
G75*
G03*
X21158000Y3414000I-127000J0D01*
G01*
X20395998Y4874498D02*
G75*
G03*
X21092935Y4428155I850962J561442D01*
G01*
X21031063Y3223497D02*
G75*
G03*
X21092071Y3157456I63437J-2597D01*
G01*
X21094500Y3414000D02*
G75*
G03*
X21031000Y3350500I0J-63500D01*
G01*
X20523000Y3223501D02*
G75*
G03*
X20649966Y3350400I-63500J190499D01*
G01*
X20649999Y3350500D02*
G75*
G03*
X20649067Y3667326I-317499J157480D01*
G01*
X20332500Y3223500D02*
G75*
G03*
X19760915Y3984035I-855980J-48260D01*
G01*
X20650000Y3668000D02*
G75*
G03*
X19698708Y4428834I-1236980J-571500D01*
G01*
X20967500Y5255500D02*
G75*
G03*
X19380721Y5763321I-1120140J-767080D01*
G01*
X19164100Y5699996D02*
G75*
G03*
X19379915Y5761887I33100J291804D01*
G01*
X19761000Y3985500D02*
G75*
G03*
X19321275Y4111506I-1265300J-3585300D01*
G01*
X18364000Y4620500D02*
G75*
G03*
X19186462Y4174425I970350J807850D01*
G01*
X18363995Y4620496D02*
G75*
G03*
X17855301Y4810526I-444495J-413996D01*
G01*
D20*
X15501420Y5918440D02*
X14330480Y6121640D01*
X15498880Y4922760D02*
X14427000Y4727180D01*
X15498880Y5915900D02*
X15498880Y4930380D01*
D21*
X15361720Y5824460D02*
X14343180Y6004800D01*
X15359180Y5034520D02*
X14409220Y4816080D01*
D20*
X15349020Y5672060D02*
X14233960Y5918440D01*
D22*
X15349020Y5811760D02*
X15354100Y5024360D01*
D20*
X15206780Y5727940D02*
X15206780Y5077700D01*
D23*
X14891820Y5430760D02*
X13474500Y5491720D01*
D20*
X14736880Y3015220D02*
X14139980Y3878820D01*
X14714020Y7836140D02*
X14040920Y8549880D01*
X14693700Y7800580D02*
X14099340Y6947140D01*
D22*
X14571780Y3033000D02*
X14007900Y2494520D01*
D21*
X14556540Y3033000D02*
X14023140Y3866120D01*
D22*
X14551460Y7831060D02*
X14051080Y8364460D01*
D21*
X14541300Y7808200D02*
X13985040Y6957300D01*
D20*
X14432080Y6116560D02*
X14096800Y6949680D01*
D21*
X14381280Y4793220D02*
X14023140Y3909300D01*
X14312700Y6040360D02*
X13964720Y6906500D01*
D23*
X14094260Y4943080D02*
X13388140Y5070080D01*
D20*
X14058700Y8288260D02*
X13174780Y7566900D01*
X14028220Y8552420D02*
X13057940Y7836140D01*
X14007900Y2319260D02*
X14729260Y3012680D01*
D21*
X14002820Y8389860D02*
X13174780Y7737080D01*
D17*
X13995200Y2494520D02*
X13215420Y3025380D01*
D23*
X13906300Y7716760D02*
X12844580Y6609320D01*
X13855500Y3226040D02*
X13002060Y4247120D01*
X13845340Y4297920D02*
X13281460Y4777980D01*
D20*
X13819940Y6939520D02*
X14206020Y5941300D01*
X13814860Y6934440D02*
X14416840Y7843760D01*
D23*
X13769140Y6187680D02*
X13327180Y6027660D01*
X13593880Y6667740D02*
X13136680Y6378180D01*
D21*
X13205260Y3043160D02*
X12887760Y2837420D01*
D23*
X13179860Y3398760D02*
X12814100Y4160760D01*
D20*
X13174780Y2890760D02*
X14000280Y2326880D01*
X13169700Y7569440D02*
X12186720Y8062200D01*
X13162080Y2880600D02*
X12816640Y2659620D01*
D21*
X13113820Y7747240D02*
X12268000Y8153640D01*
D20*
X13093500Y7904720D02*
X12189260Y8283180D01*
X13083340Y5710160D02*
X12951260Y4887200D01*
X12946180Y4856720D02*
X12852200Y4686540D01*
X12946180Y4856720D02*
X12852200Y4686540D01*
D24*
X12859820Y2857740D02*
X12308640Y4280140D01*
D20*
X12839500Y4656060D02*
X12532160Y4389360D01*
X12778540Y2677400D02*
X12128300Y4346180D01*
X12722660Y4635740D02*
X12463580Y4297920D01*
X12659160Y6446760D02*
X13078260Y5715240D01*
D23*
X12595660Y7444980D02*
X12420400Y7086840D01*
D20*
X12354360Y4521440D02*
X12128300Y4346180D01*
D23*
X12161320Y7704060D02*
X11993680Y7094460D01*
D20*
X12105440Y9299180D02*
X12306100Y8273020D01*
X12095280Y9306800D02*
X11130080Y9306800D01*
D21*
X12016540Y9200120D02*
X11231680Y9200120D01*
X12008920Y9187420D02*
X12214660Y8173960D01*
D20*
X11787940Y6876020D02*
X12659160Y6446760D01*
D23*
X11645700Y8692120D02*
X11640620Y7178280D01*
D21*
X11249460Y9179800D02*
X11036100Y8161260D01*
D20*
X11130080Y9306800D02*
X10904020Y8135860D01*
D21*
X11036100Y8161260D02*
X10134400Y7711680D01*
D20*
X10990380Y4064240D02*
X11112300Y4348720D01*
X10972600Y6708380D02*
X11787940Y6868400D01*
X10914180Y8217140D02*
X10109000Y7879320D01*
D23*
X10896400Y7688820D02*
X11117380Y7003020D01*
D20*
X10853220Y4518900D02*
X11107220Y4353800D01*
X10830360Y4325860D02*
X10302040Y2944100D01*
X10787180Y4267440D02*
X10609380Y4389360D01*
X10609380Y4389360D02*
X10233460Y5100560D01*
D23*
X10469680Y4160760D02*
X9288580Y3147300D01*
X10469680Y4252200D02*
X10136940Y3520680D01*
D20*
X10462060Y6279120D02*
X10972600Y6708380D01*
X10439200Y2646920D02*
X10825280Y3627360D01*
D21*
X10401100Y2860280D02*
X10975140Y4300460D01*
D23*
X10355380Y4297920D02*
X9738160Y3970260D01*
X10309660Y7437360D02*
X10728760Y6850620D01*
D20*
X10233460Y5100560D02*
X10233460Y5618720D01*
X10228380Y5606020D02*
X10462060Y6279120D01*
X10228380Y7831060D02*
X9217460Y8504160D01*
D21*
X10121700Y7716760D02*
X9217460Y8351200D01*
D20*
X10091220Y2946640D02*
X9214920Y2326880D01*
D21*
X10063280Y3045700D02*
X10401100Y2860280D01*
D23*
X10035340Y4717020D02*
X9425740Y4610340D01*
D20*
X9910880Y2974580D02*
X10439200Y2646920D01*
D23*
X9440980Y6568680D02*
X10096300Y6202920D01*
X9380020Y7635480D02*
X10492540Y6568680D01*
D21*
X9280960Y7010640D02*
X8940600Y6073380D01*
X9278420Y3927080D02*
X8658660Y3040620D01*
X9227620Y2479280D02*
X10063280Y3045700D01*
D20*
X9227620Y2641840D02*
X10048040Y3170160D01*
D21*
X9217460Y8349220D02*
X8663740Y7803120D01*
X9212380Y2486900D02*
X8658660Y3033000D01*
D20*
X9212380Y8506700D02*
X8518960Y7815820D01*
X9204760Y2331960D02*
X8521500Y3022840D01*
D23*
X9199680Y5875260D02*
X9921040Y5727940D01*
D20*
X9128560Y6926820D02*
X8762800Y6058140D01*
D21*
X8940600Y6073380D02*
X7858560Y5844780D01*
D20*
X8879640Y4709400D02*
X7756960Y4920220D01*
D21*
X8872020Y4838940D02*
X9278420Y3927080D01*
D20*
X8808520Y3106660D02*
X9293660Y2575800D01*
X8775500Y4742420D02*
X9156500Y3761980D01*
D21*
X8663740Y7800580D02*
X9280960Y7010640D01*
D20*
X8513880Y7808200D02*
X9217460Y6817600D01*
D23*
X8389420Y5451080D02*
X9857540Y5364720D01*
D21*
X7858560Y5009120D02*
X8872020Y4838940D01*
X7858560Y5844780D02*
X7858560Y5009120D01*
D20*
X7825540Y5156440D02*
X8932980Y4932920D01*
X7741720Y5898120D02*
X7744260Y4940540D01*
D21*
X12458500Y4470640D02*
G75*
G03*
X12534700Y6324840I-889000J965200D01*
G01*
X10594140Y6167360D02*
G75*
G03*
X10964981Y4303001I1117598J-746760D01*
G01*
X12509300Y6350240D02*
G75*
G03*
X10583980Y6152120I-863600J-1061719D01*
G01*
D25*
X2090220Y7838680D02*
X4523540Y10259300D01*
D13*
X5053237Y9002000D02*
G75*
G03*
X5053237Y9002000I-1802237J0D01*
G01*
D20*
X5743000Y12608000D02*
X5743000Y13370000D01*
X5743000Y13370000D02*
X1171000Y13370000D01*
X5692200Y12709600D02*
X1272600Y12709600D01*
X5692200Y13014400D02*
X1221800Y13014400D01*
X5692200Y13166800D02*
X1272600Y13166800D01*
X5692200Y13217600D02*
X1221800Y13217600D01*
D13*
X5537000Y18146000D02*
X1346000Y13955000D01*
X5410000Y14082000D02*
X1346000Y18019000D01*
X4902000Y17638000D02*
X1981000Y17638000D01*
X4394000Y14082000D02*
X3886000Y14082000D01*
X4394000Y14463000D02*
X4648000Y17511000D01*
X4394000Y14463000D02*
X4394000Y14082000D01*
X4394000Y14463000D02*
X2997000Y14463000D01*
X4394000Y17765000D02*
X4394000Y18273000D01*
X4394000Y18273000D02*
X4267000Y18273000D01*
X4267000Y18273000D02*
X4267000Y17765000D01*
X3886000Y14082000D02*
X3886000Y14336000D01*
X3632000Y16749000D02*
X3632000Y17130000D01*
X3632000Y17130000D02*
X2743000Y17130000D01*
X3632000Y18400000D02*
X3251000Y18400000D01*
X3632000Y18527000D02*
X3632000Y18400000D01*
X3505000Y17003000D02*
X2870000Y17003000D01*
X3251000Y18400000D02*
X3251000Y18527000D01*
X3251000Y18527000D02*
X3632000Y18527000D01*
X2743000Y16749000D02*
X3632000Y16749000D01*
X2743000Y17130000D02*
X2743000Y16749000D01*
X2489000Y14971000D02*
X2362000Y17003000D01*
X2362000Y17130000D02*
X1981000Y17130000D01*
X2362000Y17638000D02*
X2362000Y17130000D01*
X2235000Y17130000D02*
X2235000Y17511000D01*
X2235000Y17511000D02*
X2235000Y17384000D01*
X2235000Y17511000D02*
X2235000Y17384000D01*
X2235000Y17511000D02*
X2108000Y17511000D01*
X2235000Y17638000D02*
X2108000Y17257000D01*
X2108000Y17511000D02*
X2108000Y17130000D01*
X1981000Y17130000D02*
X1981000Y17638000D01*
D20*
X1272600Y12811200D02*
X5641400Y12811200D01*
X1221800Y12912800D02*
X5641400Y12912800D01*
X1221800Y13065200D02*
X5641400Y13065200D01*
X1221800Y13319200D02*
X5641400Y13319200D01*
X1171000Y12608000D02*
X5743000Y12608000D01*
X1171000Y13370000D02*
X1171000Y12608000D01*
D13*
X4648000Y17765000D02*
G75*
G03*
X2362000Y17765000I-1143000J-1143000D01*
G01*
D26*
X2616000Y14463000D02*
G75*
G03*
X2616000Y14463000I-127000J0D01*
G01*
D13*
X2890609Y14463000D02*
G75*
G03*
X2890609Y14463000I-401609J0D01*
G01*
X23571000Y10018000D02*
X11760000Y10018000D01*
X16713000Y19035000D02*
X15851940Y18415240D01*
X16713000Y19035000D02*
X15846860Y16919180D01*
D27*
X16332000Y18527000D02*
X15824000Y17638000D01*
D13*
X16332000Y18527000D02*
X15318540Y17889460D01*
D27*
X15824000Y17638000D02*
X15697000Y17130000D01*
X15697000Y17130000D02*
X15318540Y16622000D01*
X15443000Y17638000D02*
X10871000Y17638000D01*
X15318540Y16622000D02*
X15318540Y17003000D01*
X15318540Y17003000D02*
X15697000Y17889460D01*
D13*
X15318540Y17384000D02*
X15036600Y17036020D01*
D27*
X15318540Y17889460D02*
X14173000Y17889460D01*
X15189000Y16495000D02*
X14808000Y15987000D01*
X14935000Y17511000D02*
X15443000Y17638000D01*
X14808000Y15987000D02*
X14554000Y15606000D01*
X14808000Y16368000D02*
X14046000Y15733000D01*
X14554000Y15606000D02*
X13665000Y14717000D01*
X14173000Y16368000D02*
X14935000Y16749000D01*
X14173000Y17889460D02*
X13157000Y18019000D01*
D13*
X14134900Y18077420D02*
X11986060Y18273000D01*
D27*
X14046000Y15733000D02*
X13919000Y15860000D01*
D13*
X13931700Y16969980D02*
X15318540Y17384000D01*
D27*
X13919000Y15352000D02*
X13792000Y15479000D01*
X13919000Y15860000D02*
X13792000Y15860000D01*
D13*
X13863120Y14531580D02*
X13827560Y14496020D01*
D27*
X13792000Y15225000D02*
X13919000Y15352000D01*
X13792000Y15479000D02*
X13284000Y15479000D01*
X13792000Y15860000D02*
X12649000Y15733000D01*
X13665000Y14717000D02*
X13157000Y14336000D01*
X13665000Y17130000D02*
X14935000Y17511000D01*
X13436400Y16114000D02*
X14173000Y16368000D01*
X13284000Y15479000D02*
X12268000Y15225000D01*
X13157000Y14336000D02*
X12268000Y14082000D01*
X13157000Y14717000D02*
X13792000Y15225000D01*
X13157000Y18019000D02*
X11506000Y18019000D01*
D13*
X13009680Y16284180D02*
X12699800Y16223220D01*
D27*
X12826800Y16114000D02*
X13436400Y16114000D01*
X12649000Y14590000D02*
X13157000Y14717000D01*
X12649000Y15733000D02*
X11633000Y15479000D01*
X12522000Y17003000D02*
X13665000Y17130000D01*
X12395000Y17003000D02*
X12522000Y17003000D01*
X12268000Y14082000D02*
X11379000Y14082000D01*
X12268000Y14463000D02*
X12649000Y14590000D01*
X12268000Y15225000D02*
X12014000Y15225000D01*
D13*
X12064800Y16680420D02*
X12582960Y16754080D01*
D27*
X12014000Y14844000D02*
X13284000Y15098000D01*
X12014000Y15225000D02*
X11506000Y14971000D01*
D13*
X11958120Y13828000D02*
X11442500Y13828000D01*
D27*
X11887000Y17003000D02*
X12395000Y17003000D01*
D13*
X11760000Y13066000D02*
X23571000Y13066000D01*
D27*
X11633000Y14463000D02*
X12268000Y14463000D01*
X11633000Y14717000D02*
X12014000Y14844000D01*
X11633000Y15479000D02*
X10998000Y14971000D01*
X11506000Y14844000D02*
X11633000Y14717000D01*
X11506000Y14971000D02*
X11506000Y14844000D01*
X11506000Y18019000D02*
X10871000Y17638000D01*
X11429800Y15631400D02*
X12826800Y16114000D01*
X11379000Y14082000D02*
X10617000Y14590000D01*
X11252000Y14590000D02*
X11633000Y14463000D01*
X11252000Y16622000D02*
X11887000Y17003000D01*
X11125000Y16622000D02*
X10871000Y17130000D01*
X10998000Y14590000D02*
X11252000Y14590000D01*
X10998000Y14971000D02*
X10871000Y14844000D01*
D13*
X10904020Y14048980D02*
X10850680Y14102320D01*
D27*
X10871000Y14844000D02*
X10998000Y14590000D01*
X10871000Y17130000D02*
X10871000Y17384000D01*
X10871000Y17130000D02*
X10490000Y16622000D01*
X10871000Y17384000D02*
X15824000Y17460200D01*
X10871000Y17638000D02*
X10871000Y17384000D01*
X10871000Y17638000D02*
X10363000Y17130000D01*
D13*
X10789720Y16172420D02*
X10797340Y16177500D01*
D27*
X10744000Y15225000D02*
X11429800Y15631400D01*
X10744000Y17003000D02*
X12395000Y17003000D01*
D13*
X10617000Y12558000D02*
X10126780Y13048220D01*
D27*
X10617000Y14590000D02*
X10236000Y14463000D01*
D13*
X10490000Y12431000D02*
X9982000Y13193000D01*
X10490000Y12558000D02*
X10304580Y12743420D01*
D27*
X10490000Y16241000D02*
X11125000Y16622000D01*
X10363000Y17130000D02*
X10109000Y16622000D01*
X10236000Y14463000D02*
X9982000Y14209000D01*
X10236000Y14717000D02*
X10744000Y15225000D01*
D13*
X10144560Y14953220D02*
X9974380Y14765260D01*
X10131860Y14102320D02*
X9855000Y13828000D01*
D27*
X10109000Y16622000D02*
X9982000Y15606000D01*
X9982000Y14209000D02*
X10236000Y14717000D01*
X9982000Y15606000D02*
X10490000Y16241000D01*
D13*
X9936280Y16756620D02*
X9788960Y16157180D01*
X9855000Y13320000D02*
X9750860Y13213320D01*
X9855000Y13655280D02*
X9855000Y13701000D01*
X9832140Y13873720D02*
X9855000Y13828000D01*
X9730540Y15098000D02*
X9733080Y15100540D01*
X9730540Y15479000D02*
X9730540Y15098000D01*
X9220000Y13955000D02*
X8458000Y13955000D01*
X9220000Y14059140D02*
X9220000Y14082000D01*
X9220000Y14082000D02*
X9220000Y14336000D01*
X9220000Y14082000D02*
X8458000Y14082000D01*
X9220000Y14336000D02*
X9093000Y14336000D01*
X9146340Y14940520D02*
X9093000Y15034500D01*
X9100620Y13185380D02*
X8966000Y13320000D01*
X9093000Y13701000D02*
X9093000Y13574000D01*
X9093000Y13701000D02*
X8585000Y13701000D01*
X9093000Y13828000D02*
X9093000Y13701000D01*
X9093000Y13828000D02*
X8458000Y13828000D01*
X9093000Y14209000D02*
X9093000Y13828000D01*
X9093000Y14209000D02*
X8458000Y14209000D01*
X9093000Y14336000D02*
X9093000Y14209000D01*
X9093000Y14336000D02*
X8966000Y14336000D01*
X8966000Y13320000D02*
X9263180Y13739100D01*
X8966000Y14336000D02*
X8966000Y13701000D01*
X8966000Y14336000D02*
X8585000Y14336000D01*
X8953300Y13320000D02*
X8966000Y13320000D01*
X8663740Y13444460D02*
X8691680Y13416520D01*
X8585000Y14336000D02*
X8585000Y13828000D01*
X8585000Y14336000D02*
X8331000Y14336000D01*
X8371640Y15679660D02*
X7950000Y15860000D01*
X8331000Y14336000D02*
X8839000Y13447000D01*
X8331000Y14463000D02*
X9220000Y14463000D01*
X8331000Y14590000D02*
X9220000Y14590000D01*
X8331000Y14717000D02*
X9093000Y14717000D01*
X8331000Y14844000D02*
X9093000Y14844000D01*
X8280200Y14513800D02*
X8280200Y14521420D01*
X8204000Y13447000D02*
X7696000Y13447000D01*
X8204000Y14971000D02*
X9093000Y14971000D01*
X8204000Y15098000D02*
X8966000Y15098000D01*
X8077000Y13574000D02*
X7442000Y13574000D01*
X8077000Y15225000D02*
X8839000Y15225000D01*
X8077000Y15352000D02*
X8712000Y15352000D01*
X8051600Y13320000D02*
X8407200Y13320000D01*
X7950000Y13701000D02*
X7315000Y13701000D01*
X7950000Y13828000D02*
X7188000Y13828000D01*
X7950000Y15479000D02*
X8458000Y15479000D01*
X7950000Y15733000D02*
X7188000Y15733000D01*
X7950000Y15860000D02*
X6934000Y16241000D01*
X7899200Y13955000D02*
X7061000Y13955000D01*
X7873800Y14511260D02*
X7899200Y14120100D01*
X7823000Y14082000D02*
X7061000Y14082000D01*
X7823000Y14209000D02*
X7061000Y14209000D01*
X7823000Y14336000D02*
X7061000Y14336000D01*
X7823000Y14463000D02*
X7061000Y14463000D01*
X7823000Y14590000D02*
X7061000Y14590000D01*
X7823000Y14717000D02*
X7061000Y14717000D01*
X7823000Y14844000D02*
X7188000Y14844000D01*
X7696000Y14971000D02*
X7188000Y14971000D01*
X7696000Y15098000D02*
X7188000Y15098000D01*
X7696000Y15860000D02*
X7061000Y15860000D01*
X7569000Y15987000D02*
X7061000Y15987000D01*
X7442000Y15606000D02*
X8331000Y15606000D01*
X7442000Y15606000D02*
X7442000Y15098000D01*
X7315000Y15606000D02*
X7442000Y15606000D01*
X7315000Y15606000D02*
X7315000Y15098000D01*
X7248960Y13640040D02*
X7271820Y13617180D01*
X7188000Y15606000D02*
X7315000Y15606000D01*
X6934000Y16241000D02*
X7068620Y15702520D01*
X23571000Y10018000D02*
G75*
G03*
X25095000Y11542000I1J1523999D01*
G01*
X25095000Y11542000D02*
G75*
G03*
X23571000Y13066000I-1524000J0D01*
G01*
X14134901Y18077424D02*
G75*
G03*
X15849952Y18417479I447039J2240296D01*
G01*
X13863119Y14531581D02*
G75*
G03*
X15844464Y16913553I-6362019J7307019D01*
G01*
X13009680Y16284181D02*
G75*
G03*
X15036541Y17034222I-604580J4747419D01*
G01*
X12582960Y16754074D02*
G75*
G03*
X13925379Y16969814I-470260J7210526D01*
G01*
X11958120Y13828001D02*
G75*
G03*
X13823932Y14493988I127040J2590689D01*
G01*
X10236000Y11542000D02*
G75*
G03*
X11760000Y10018000I1524000J0D01*
G01*
X10904032Y14048992D02*
G75*
G03*
X11442500Y13825934I538468J538408D01*
G01*
X12064800Y16680420D02*
G75*
G03*
X10801130Y16180066I871300J-4046420D01*
G01*
X9855022Y13655280D02*
G75*
G03*
X10360978Y12430720I1734678J-80D01*
G01*
X9855025Y13828000D02*
G75*
G03*
X10302549Y12742441I1534075J-2600D01*
G01*
X11760000Y13066000D02*
G75*
G03*
X10236000Y11542000I0J-1524000D01*
G01*
X12699802Y16223208D02*
G75*
G03*
X10145473Y14953844I1099098J-5416408D01*
G01*
X10850680Y14102320D02*
G75*
G03*
X10131860Y14104860I-360680J-358120D01*
G01*
X9854979Y13701000D02*
G75*
G03*
X10123258Y13048290I921821J-2600D01*
G01*
X11986060Y18273000D02*
G75*
G03*
X9935736Y16760415I93980J-2273300D01*
G01*
X9974380Y14765260D02*
G75*
G03*
X9854154Y13827931I642620J-558800D01*
G01*
X9392720Y13065998D02*
G75*
G03*
X9750134Y13214046I-20J505502D01*
G01*
X10789725Y16172413D02*
G75*
G03*
X9734641Y15102235I2775875J-3791913D01*
G01*
X9788958Y16157180D02*
G75*
G03*
X9728760Y15479757I2989942J-607080D01*
G01*
X9100626Y13185386D02*
G75*
G03*
X9392720Y13064388I292074J292014D01*
G01*
X9263180Y13739100D02*
G75*
G03*
X9348874Y14183099I-1109980J444500D01*
G01*
X8965991Y13447009D02*
G75*
G03*
X9219555Y14057629I-611991J612091D01*
G01*
X9346999Y14183600D02*
G75*
G03*
X9146793Y14938679I-1523999J0D01*
G01*
X8663724Y13444444D02*
G75*
G03*
X8967788Y13318208I304676J304556D01*
G01*
X8280222Y14513799D02*
G75*
G03*
X8690341Y13416955I1528978J-53399D01*
G01*
X7899195Y14120099D02*
G75*
G03*
X8401340Y13324387I1211605J208301D01*
G01*
X9093013Y15034507D02*
G75*
G03*
X8371000Y15678488I-1323213J-756807D01*
G01*
X7853479Y13342856D02*
G75*
G03*
X8052927Y13318697I198121J800244D01*
G01*
X7271821Y13617181D02*
G75*
G03*
X7851497Y13343547I785079J912319D01*
G01*
X8280199Y14521420D02*
G75*
G03*
X7773020Y15552819I-1498599J-96520D01*
G01*
X7873805Y14468080D02*
G75*
G03*
X7519795Y15458934I-1762905J-71180D01*
G01*
X6934019Y14396960D02*
G75*
G03*
X7247946Y13639026I1071781J-60D01*
G01*
X7005118Y14765261D02*
G75*
G03*
X7069148Y15699864I-1415018J566439D01*
G01*
X7005136Y14765254D02*
G75*
G03*
X6934283Y14396513I921564J-368254D01*
G01*
X5001000Y21853000D02*
X5001000Y21353000D01*
X5001000Y25353000D02*
X5001000Y24853000D01*
X3001000Y23603000D02*
X1751000Y23603000D01*
X1751000Y23103000D02*
X3001000Y23103000D01*
X1751000Y23353000D02*
X3001000Y23353000D01*
X1751000Y23603000D02*
X1751000Y23103000D01*
X1501000Y21853000D02*
X1501000Y21353000D01*
X1501000Y25353000D02*
X1501000Y24853000D01*
D28*
X5050980Y21603000D02*
G75*
G03*
X5051000Y25103000I-49980J1750000D01*
G01*
D13*
X5001000Y21853000D02*
G75*
G03*
X5001000Y24853000I0J1500000D01*
G01*
X5001000Y21353000D02*
G75*
G03*
X5001000Y25353000I0J2000000D01*
G01*
D28*
X1550980Y21603000D02*
G75*
G03*
X1551000Y25103000I-49980J1750000D01*
G01*
D13*
X1501000Y21853000D02*
G75*
G03*
X1501000Y24853000I0J1500000D01*
G01*
X1501000Y21353000D02*
G75*
G03*
X1501000Y25353000I0J2000000D01*
G01*
M02*
